<svg width="25" height="28" viewBox="0 0 25 28" fill="none" xmlns="http://www.w3.org/2000/svg">
<path d="M0.494357 0.428197C0.14741 0.844456 -0.0280417 1.37719 0.00365329 1.91815V25.4184C-0.0262482 25.9591 0.148993 26.4912 0.494357 26.9083L0.574654 26.9886L13.7344 13.8199V13.5077L0.574654 0.3479L0.494357 0.428197Z" fill="url(#paint0_linear_1_271)"/>
<path d="M18.1239 18.2095L13.7344 13.8199V13.5077L18.1239 9.12701L18.2221 9.18055L23.4235 12.1337C24.9135 12.9723 24.9135 14.3552 23.4235 15.2028L18.2221 18.156L18.1239 18.2095Z" fill="url(#paint1_linear_1_271)"/>
<path d="M18.2222 18.1559L13.7612 13.695L0.494385 26.9083C0.800185 27.1597 1.18091 27.3023 1.57663 27.3136C1.97235 27.3249 2.36059 27.2043 2.68025 26.9708L18.1954 18.1559" fill="url(#paint2_linear_1_271)"/>
<path d="M18.2222 9.18056L2.68025 0.356814C2.36402 0.113694 1.9732 -0.0120999 1.57453 0.000917832C1.17586 0.0139356 0.794077 0.164957 0.494385 0.428189L13.7345 13.6683L18.2222 9.18056Z" fill="url(#paint3_linear_1_271)"/>
<path opacity="0.1" d="M18.1239 18.0578L2.68016 26.8191C2.37209 27.0486 1.99817 27.1726 1.61399 27.1726C1.22981 27.1726 0.855889 27.0486 0.547826 26.8191L0.467529 26.8994L0.547826 26.9797C0.855889 27.2092 1.22981 27.3332 1.61399 27.3332C1.99817 27.3332 2.37209 27.2092 2.68016 26.9797L18.1953 18.1649L18.1239 18.0578Z" fill="black"/>
<path opacity="0.07" d="M0.494335 26.7656C0.148393 26.3453 -0.0267757 25.8102 0.00363155 25.2667V25.4184C-0.0262699 25.9591 0.148971 26.4912 0.494335 26.9084L0.574632 26.8281L0.494335 26.7656Z" fill="black"/>
<path opacity="0.07" d="M23.4236 15.0422L18.124 18.0578L18.2222 18.156L23.4236 15.1671C23.7287 15.033 23.9927 14.8202 24.1887 14.5506C24.3846 14.281 24.5055 13.9642 24.5389 13.6326C24.478 13.9391 24.3451 14.2268 24.1512 14.4719C23.9573 14.717 23.7079 14.9125 23.4236 15.0422Z" fill="black"/>
<path opacity="0.3" d="M2.68072 0.517569L23.4241 12.2855C23.7056 12.4121 23.9533 12.6033 24.1471 12.8436C24.3409 13.0839 24.4753 13.3665 24.5393 13.6684C24.5077 13.3363 24.3876 13.0186 24.1914 12.7487C23.9953 12.4788 23.7303 12.2665 23.4241 12.1339L2.68072 0.356975C1.21753 -0.481682 0.00415039 0.214225 0.00415039 1.9183V2.06998C0.00415039 0.374818 1.21753 -0.33001 2.68072 0.517569Z" fill="white"/>
<defs>
<linearGradient id="paint0_linear_1_271" x1="12.5746" y1="1.66834" x2="-5.26026" y2="19.5032" gradientUnits="userSpaceOnUse">
<stop stop-color="#008EFF"/>
<stop offset="0.01" stop-color="#008FFF"/>
<stop offset="0.26" stop-color="#00ACFF"/>
<stop offset="0.51" stop-color="#00C0FF"/>
<stop offset="0.76" stop-color="#00CDFF"/>
<stop offset="1" stop-color="#00D1FF"/>
</linearGradient>
<linearGradient id="paint1_linear_1_271" x1="23.602" y1="13.6683" x2="-2.11089" y2="13.6683" gradientUnits="userSpaceOnUse">
<stop stop-color="#FFD800"/>
<stop offset="1" stop-color="#FF8A00"/>
</linearGradient>
<linearGradient id="paint2_linear_1_271" x1="15.7865" y1="16.1039" x2="-8.39181" y2="40.2822" gradientUnits="userSpaceOnUse">
<stop stop-color="#FF3A44"/>
<stop offset="1" stop-color="#B11162"/>
</linearGradient>
<linearGradient id="paint3_linear_1_271" x1="-2.8424" y1="-7.3963" x2="7.962" y2="3.39918" gradientUnits="userSpaceOnUse">
<stop stop-color="#328E71"/>
<stop offset="0.07" stop-color="#2D9571"/>
<stop offset="0.48" stop-color="#15BD74"/>
<stop offset="0.8" stop-color="#06D575"/>
<stop offset="1" stop-color="#00DE76"/>
</linearGradient>
</defs>
</svg>
