<svg width="22" height="28" viewBox="0 0 22 28" fill="none" xmlns="http://www.w3.org/2000/svg">
<path fill-rule="evenodd" clip-rule="evenodd" d="M16.3674 0C16.4883 1.57118 15.9919 3.1276 14.9837 4.33872H14.988C14.0186 5.47891 12.4728 6.35007 10.9653 6.23904C10.7646 4.7017 11.5333 3.06187 12.3873 2.0626C13.4099 0.902125 14.8296 0.166333 16.3674 0ZM21.2911 9.22834C21.1587 9.3052 18.3317 10.9707 18.3659 14.387C18.3627 15.5581 18.7061 16.7041 19.3527 17.6805C19.9994 18.657 20.9205 19.4203 22 19.8744C21.5833 21.2486 20.9474 22.5464 20.1168 23.7178C19.0065 25.3576 17.7937 26.9761 15.9958 27.0145C15.1191 27.0333 14.5319 26.7819 13.9186 26.5194C13.2741 26.2436 12.601 25.9555 11.5333 25.9555C10.4229 25.9555 9.7454 26.2452 9.08661 26.5269C8.50893 26.7739 7.94567 27.0148 7.11768 27.0487C5.34547 27.1213 4.0003 25.2807 2.84729 23.6324C0.528469 20.2716 -1.26082 14.1564 1.13914 9.99701C1.69366 9.00119 2.49624 8.16566 3.46896 7.57155C4.44168 6.97744 5.5515 6.64494 6.69064 6.60632C7.69367 6.58689 8.66216 6.97491 9.50658 7.31322C10.1469 7.56978 10.716 7.79776 11.1746 7.79776C11.5873 7.79776 12.1441 7.57646 12.7928 7.31863C13.8155 6.91218 15.0666 6.41493 16.3417 6.5508C17.318 6.5822 18.2734 6.84051 19.1325 7.30526C19.9916 7.77 20.7306 8.42842 21.2911 9.22834Z" fill="#1F261E"/>
</svg>
