<svg width="48" height="41" viewBox="0 0 48 41" fill="none" xmlns="http://www.w3.org/2000/svg">
<path fill-rule="evenodd" clip-rule="evenodd" d="M33.2811 3.06887L35.3857 0.930908L47.1383 12.4999L35.3857 24.0689L33.2811 21.9309L41.3381 13.9999H13.0001C12.1717 13.9999 11.5001 13.3283 11.5001 12.4999C11.5001 11.6715 12.1717 10.9999 13.0001 10.9999H41.3381L33.2811 3.06887ZM14.4025 19.052L12.2643 16.9478L0.895508 28.4999L12.2643 40.052L14.4025 37.9478L6.5808 29.9999L34.0001 29.9999C34.8285 29.9999 35.5001 29.3283 35.5001 28.4999C35.5001 27.6715 34.8285 26.9999 34.0001 26.9999L6.5808 26.9999L14.4025 19.052Z" fill="#4FB518"/>
</svg>
