<svg width="23" height="24" viewBox="0 0 23 24" fill="none" xmlns="http://www.w3.org/2000/svg">
<path fill-rule="evenodd" clip-rule="evenodd" d="M6.67781 5.82938C6.67781 3.89769 8.24376 2.33175 10.1754 2.33175C12.1071 2.33175 13.6731 3.89769 13.6731 5.82938C13.6731 7.76106 12.1071 9.32701 10.1754 9.32701C8.24376 9.32701 6.67781 7.76106 6.67781 5.82938ZM10.1754 0C6.95597 0 4.34606 2.6099 4.34606 5.82938C4.34606 9.04885 6.95597 11.6588 10.1754 11.6588C13.3949 11.6588 16.0048 9.04885 16.0048 5.82938C16.0048 2.6099 13.3949 0 10.1754 0ZM10.1754 13.9906C10.6944 13.9906 11.2114 14.0203 11.7221 14.0791C10.5357 14.3511 9.57947 15.2266 9.19369 16.3652C7.68477 16.4976 6.2612 16.9322 5.079 17.6125C3.64242 18.4393 2.6853 19.5546 2.2641 20.7335C2.04747 21.3398 1.38031 21.6558 0.773947 21.4391C0.167587 21.2225 -0.148349 20.5553 0.0682821 19.949C0.709902 18.1531 2.0947 16.6397 3.91594 15.5915C5.73785 14.543 7.93751 13.9906 10.1754 13.9906ZM17.1706 11.6588C17.8145 11.6588 18.3364 12.1807 18.3364 12.8246V16.3225H21.8341C22.478 16.3225 23 16.8444 23 17.4883C23 18.1322 22.478 18.6542 21.8341 18.6542H18.3364V22.1516C18.3364 22.7955 17.8145 23.3175 17.1706 23.3175C16.5267 23.3175 16.0047 22.7955 16.0047 22.1516V18.6542H12.5071C11.8632 18.6542 11.3412 18.1322 11.3412 17.4883C11.3412 16.8444 11.8632 16.3225 12.5071 16.3225H16.0047V12.8246C16.0047 12.1807 16.5267 11.6588 17.1706 11.6588Z" fill="#8F928E"/>
</svg>
