<svg width="31" height="32" viewBox="0 0 31 32" fill="none" xmlns="http://www.w3.org/2000/svg">
<path fill-rule="evenodd" clip-rule="evenodd" d="M8.96891 7.82938C8.96891 5.23495 11.0721 3.13175 13.6665 3.13175C16.261 3.13175 18.3642 5.23495 18.3642 7.82938C18.3642 10.4238 16.261 12.527 13.6665 12.527C11.0721 12.527 8.96891 10.4238 8.96891 7.82938ZM13.6665 0C9.34249 0 5.83716 3.50533 5.83716 7.82938C5.83716 12.1534 9.34249 15.6588 13.6665 15.6588C17.9906 15.6588 21.4959 12.1534 21.4959 7.82938C21.4959 3.50533 17.9906 0 13.6665 0ZM13.6665 18.7908C14.3636 18.7908 15.0579 18.8307 15.7438 18.9096C14.1504 19.275 12.8661 20.4509 12.348 21.9801C10.3213 22.1579 8.40936 22.7416 6.82155 23.6553C4.8921 24.7657 3.60659 26.2637 3.0409 27.8471C2.74994 28.6615 1.85388 29.0858 1.03948 28.7948C0.225085 28.5039 -0.199247 27.6078 0.0917091 26.7934C0.953462 24.3814 2.81337 22.3487 5.25946 20.941C7.70645 19.5328 10.6608 18.7908 13.6665 18.7908ZM23.0616 15.6587C23.9264 15.6587 24.6275 16.3597 24.6275 17.2245V21.9223H29.3252C30.19 21.9223 30.8911 22.6233 30.8911 23.4881C30.8911 24.353 30.19 25.054 29.3252 25.054H24.6275V29.7516C24.6275 30.6164 23.9264 31.3174 23.0616 31.3174C22.1968 31.3174 21.4958 30.6164 21.4957 29.7516V25.054H16.7982C15.9334 25.054 15.2323 24.353 15.2323 23.4881C15.2323 22.6233 15.9334 21.9223 16.7982 21.9223H21.4957V17.2245C21.4957 16.3597 22.1968 15.6587 23.0616 15.6587Z" fill="#186CE9"/>
</svg>
