<svg width="29" height="22" viewBox="0 0 29 22" fill="none" xmlns="http://www.w3.org/2000/svg">
<path fill-rule="evenodd" clip-rule="evenodd" d="M14.0949 4.91407H7.89624L16.6057 1.18308C17.6001 0.756994 18.457 0.389872 19.1827 0.188176C19.9604 -0.0279822 20.7609 -0.106995 21.5776 0.219831C22.3943 0.546658 22.9192 1.15605 23.3331 1.84909C23.7193 2.49576 24.0863 3.35266 24.5123 4.3472L24.7551 4.91407H22.0993C21.7419 4.08511 21.4854 3.51571 21.2375 3.10064C20.9636 2.64208 20.7927 2.53481 20.6707 2.486C20.5487 2.43718 20.3509 2.3969 19.8363 2.53992C19.2876 2.69244 18.5824 2.99172 17.493 3.4584L14.0949 4.91407ZM6.02189 6.13445L6.10223 6.13445L22.0484 6.13445C23.1303 6.13439 24.0625 6.13434 24.809 6.2347C25.609 6.34226 26.3758 6.58482 26.9979 7.20683C27.6199 7.82885 27.8624 8.59572 27.97 9.39574C28.0704 10.1422 28.0703 11.0744 28.0702 12.1564V15.9783C28.0703 17.0602 28.0704 17.9924 27.97 18.739C27.8624 19.539 27.6199 20.3058 26.9979 20.9279C26.3758 21.5499 25.609 21.7924 24.809 21.9C24.0625 22.0004 23.1303 22.0003 22.0484 22.0002H6.02188C4.93998 22.0003 4.00779 22.0004 3.26129 21.9C2.46127 21.7924 1.6944 21.5499 1.07239 20.9279C0.450371 20.3058 0.207814 19.539 0.100254 18.739C-0.000110071 17.9925 -5.78364e-05 17.0603 2.97779e-06 15.9784L5.88756e-06 12.2367L2.97779e-06 12.1563C-5.78364e-05 11.0744 -0.000110071 10.1422 0.100254 9.39574C0.207814 8.59572 0.450371 7.82885 1.07239 7.20683C1.6944 6.58482 2.46127 6.34226 3.26129 6.2347C4.00779 6.13434 4.93998 6.13439 6.02188 6.13445H6.02189ZM3.58653 8.65383C3.05718 8.725 2.89126 8.8399 2.79836 8.9328C2.70545 9.02571 2.59055 9.19162 2.51938 9.72098C2.44349 10.2854 2.4409 11.0515 2.4409 12.2367V15.898C2.4409 17.0832 2.44349 17.8492 2.51938 18.4137C2.59055 18.9431 2.70545 19.109 2.79836 19.2019C2.89126 19.2948 3.05718 19.4097 3.58653 19.4809C4.151 19.5568 4.91708 19.5593 6.10223 19.5593H21.968C23.1532 19.5593 23.9193 19.5568 24.4837 19.4809C25.0131 19.4097 25.179 19.2948 25.2719 19.2019C25.3648 19.109 25.4797 18.9431 25.5509 18.4137C25.6268 17.8492 25.6294 17.0832 25.6294 15.898V12.2367C25.6294 11.0515 25.6268 10.2854 25.5509 9.72098C25.4797 9.19162 25.3648 9.02571 25.2719 8.9328C25.179 8.8399 25.0131 8.725 24.4837 8.65383C23.9193 8.57794 23.1532 8.57534 21.968 8.57534H6.10223C4.91708 8.57534 4.151 8.57794 3.58653 8.65383ZM17.0863 14.0671C17.0863 15.7521 15.7202 17.1182 14.0352 17.1182C12.3501 17.1182 10.984 15.7521 10.984 14.0671C10.984 12.382 12.3501 11.016 14.0352 11.016C15.7202 11.016 17.0863 12.382 17.0863 14.0671ZM21.3577 15.8977C22.3688 15.8977 23.1884 15.078 23.1884 14.067C23.1884 13.0559 22.3688 12.2363 21.3577 12.2363C20.3467 12.2363 19.5271 13.0559 19.5271 14.067C19.5271 15.078 20.3467 15.8977 21.3577 15.8977ZM8.5431 14.067C8.5431 15.078 7.72349 15.8977 6.71244 15.8977C5.70139 15.8977 4.88177 15.078 4.88177 14.067C4.88177 13.0559 5.70139 12.2363 6.71244 12.2363C7.72349 12.2363 8.5431 13.0559 8.5431 14.067Z" fill="#8F928E"/>
</svg>
