<svg width="36" height="29" viewBox="0 0 36 29" fill="none" xmlns="http://www.w3.org/2000/svg">
<path fill-rule="evenodd" clip-rule="evenodd" d="M18.0769 6.30218H10.127L21.2966 1.51729C22.572 0.970842 23.6709 0.50001 24.6017 0.241335C25.5991 -0.035887 26.6256 -0.137221 27.6731 0.281933C28.7205 0.701087 29.3937 1.48264 29.9245 2.37145C30.4198 3.2008 30.8905 4.29978 31.4369 5.57527L31.7483 6.30218H28.3421C27.8838 5.23909 27.5548 4.50886 27.2369 3.97656C26.8857 3.38846 26.6664 3.25089 26.51 3.18828C26.3535 3.12568 26.0999 3.07401 25.4399 3.25744C24.7362 3.45304 23.8317 3.83687 22.4346 4.43539L18.0769 6.30218ZM7.72305 7.8671L7.82609 7.86711L28.277 7.8671C29.6645 7.86702 30.86 7.86696 31.8174 7.99567C32.8434 8.13362 33.8269 8.4447 34.6247 9.24243C35.4224 10.0402 35.7335 11.0237 35.8714 12.0497C36.0001 13.0071 36.0001 14.2026 36 15.5902V20.4918C36.0001 21.8794 36.0001 23.0749 35.8714 24.0323C35.7335 25.0584 35.4224 26.0419 34.6247 26.8396C33.8269 27.6373 32.8434 27.9484 31.8174 28.0864C30.86 28.2151 29.6645 28.215 28.277 28.2149H7.72305C6.33551 28.215 5.13997 28.2151 4.18259 28.0864C3.15657 27.9484 2.17306 27.6373 1.37533 26.8396C0.5776 26.0419 0.266521 25.0584 0.128575 24.0323C-0.000141166 23.075 -7.41749e-05 21.8794 3.819e-06 20.4919L7.55077e-06 15.6932L3.819e-06 15.5901C-7.41749e-05 14.2026 -0.000141166 13.0071 0.128575 12.0497C0.266521 11.0237 0.5776 10.0402 1.37533 9.24243C2.17306 8.4447 3.15657 8.13362 4.18259 7.99567C5.13997 7.86696 6.33551 7.86702 7.72305 7.8671ZM4.59972 11.0982C3.92082 11.1895 3.70803 11.3368 3.58888 11.456C3.46973 11.5751 3.32237 11.7879 3.23109 12.4668C3.13376 13.1907 3.13044 14.1732 3.13044 15.6932V20.3888C3.13044 21.9088 3.13376 22.8913 3.23109 23.6152C3.32237 24.2941 3.46973 24.5069 3.58888 24.626C3.70803 24.7452 3.92082 24.8926 4.59972 24.9838C5.32364 25.0812 6.30614 25.0845 7.82609 25.0845H28.1739C29.6939 25.0845 30.6764 25.0812 31.4003 24.9838C32.0792 24.8926 32.292 24.7452 32.4111 24.626C32.5303 24.5069 32.6776 24.2941 32.7689 23.6152C32.8662 22.8913 32.8696 21.9088 32.8696 20.3888V15.6932C32.8696 14.1732 32.8662 13.1907 32.7689 12.4668C32.6776 11.7879 32.5303 11.5751 32.4111 11.456C32.292 11.3368 32.0792 11.1895 31.4003 11.0982C30.6764 11.0009 29.6939 10.9975 28.1739 10.9975H7.82609C6.30614 10.9975 5.32364 11.0009 4.59972 11.0982ZM21.913 18.0411C21.913 20.2022 20.1611 21.9541 18 21.9541C15.8389 21.9541 14.087 20.2022 14.087 18.0411C14.087 15.88 15.8389 14.128 18 14.128C20.1611 14.128 21.913 15.88 21.913 18.0411ZM27.3913 20.3886C28.6879 20.3886 29.7391 19.3375 29.7391 18.0408C29.7391 16.7441 28.6879 15.693 27.3913 15.693C26.0946 15.693 25.0434 16.7441 25.0434 18.0408C25.0434 19.3375 26.0946 20.3886 27.3913 20.3886ZM10.9564 18.0408C10.9564 19.3375 9.90527 20.3886 8.60861 20.3886C7.31194 20.3886 6.26078 19.3375 6.26078 18.0408C6.26078 16.7441 7.31194 15.693 8.60861 15.693C9.90527 15.693 10.9564 16.7441 10.9564 18.0408Z" fill="#4FB518"/>
</svg>
