<svg width="43" height="59" viewBox="0 0 43 59" fill="none" xmlns="http://www.w3.org/2000/svg">
<path fill-rule="evenodd" clip-rule="evenodd" d="M12.3584 34.61L12.7498 34.0107L16.9615 40.5225C16.985 40.5572 17.0167 40.5857 17.0537 40.6053C17.0908 40.625 17.1321 40.6353 17.1741 40.6353C17.2161 40.6353 17.2574 40.625 17.2945 40.6053C17.3316 40.5857 17.3633 40.5572 17.3867 40.5225C19.0066 38.0578 20.964 35.0073 22.9551 31.9299C22.9805 31.8881 22.9934 31.8398 22.9922 31.7909C22.991 31.7419 22.9758 31.6944 22.9483 31.6538C21.288 29.0679 19.7761 26.6908 18.6354 24.9198L21.2407 20.8794C22.7526 23.2228 24.1902 25.4518 25.3647 27.3238C25.3879 27.36 25.4198 27.3897 25.4575 27.4103C25.4953 27.4309 25.5376 27.4417 25.5806 27.4417C25.6237 27.4417 25.666 27.4309 25.7037 27.4103C25.7415 27.3897 25.7734 27.36 25.7966 27.3238C28.5707 23.0141 31.0207 19.1488 32.1952 17.3036C32.2219 17.2638 32.2361 17.2169 32.2361 17.169C32.2361 17.121 32.2219 17.0741 32.1952 17.0343C30.6023 14.5562 29.1376 12.2599 27.9835 10.4484C24.8854 5.54606 22.1991 1.35077 21.4364 0.118451C21.4141 0.0822455 21.3828 0.0523529 21.3456 0.031619C21.3084 0.0108851 21.2665 0 21.2238 0C21.1812 0 21.1393 0.0108851 21.1021 0.031619C21.0649 0.0523529 21.0336 0.0822455 21.0112 0.118451C19.3036 2.81205 7.86318 20.8121 3.63799 27.0208C2.10577 29.2166 1.01683 31.6891 0.431969 34.3003C0.154253 35.5544 0.00946767 36.8341 0 38.1185C0.0391293 41.4459 0.927211 44.7085 2.58047 47.5986C4.23374 50.4887 6.59768 52.911 9.44931 54.637C9.49347 54.6655 9.54535 54.6798 9.59792 54.6779C9.65049 54.6761 9.70122 54.6581 9.74322 54.6265C9.78521 54.5949 9.81645 54.5511 9.8327 54.5012C9.84894 54.4513 9.84941 54.3976 9.83403 54.3474C9.13768 52.0707 8.78064 49.7042 8.77436 47.3238C8.78886 42.8397 10.0279 38.4443 12.3584 34.61Z" fill="#4FB518"/>
<path fill-rule="evenodd" clip-rule="evenodd" d="M38.783 26.9939C37.865 25.6471 36.6231 23.7549 35.1787 21.6067C35.1564 21.5705 35.1251 21.5406 35.0879 21.5199C35.0507 21.4992 35.0088 21.4883 34.9661 21.4883C34.9235 21.4883 34.8816 21.4992 34.8444 21.5199C34.8072 21.5406 34.7759 21.5705 34.7535 21.6067L28.004 32.1859C27.9678 32.2294 27.948 32.2842 27.948 32.3407C27.948 32.3973 27.9678 32.4521 28.004 32.4956C29.5862 34.0536 30.4905 36.1701 30.5216 38.3879C30.5216 43.2296 26.3639 47.1421 21.2208 47.1421C19.8428 47.1503 18.4796 46.8594 17.2256 46.2897C15.9715 45.7199 14.8567 44.8848 13.9583 43.8424C13.9266 43.804 13.8844 43.7756 13.8367 43.7607C13.7891 43.7459 13.7382 43.7452 13.6902 43.7588C13.6422 43.7724 13.5992 43.7996 13.5665 43.8372C13.5338 43.8748 13.5128 43.9211 13.5061 43.9704C13.2028 46.4817 13.3008 49.0251 13.7963 51.5057C14.1898 53.4878 14.8245 55.4145 15.6862 57.2431C15.7041 57.2774 15.729 57.3076 15.7592 57.332C15.7894 57.3563 15.8242 57.3742 15.8616 57.3845C17.6145 57.8225 19.4138 58.0486 21.2208 58.0579C32.9379 58.0579 42.421 49.1758 42.421 38.1993C42.3848 34.181 41.1152 30.2702 38.783 26.9939Z" fill="#4FB518"/>
</svg>
