<svg width="42" height="42" viewBox="0 0 42 42" fill="none" xmlns="http://www.w3.org/2000/svg">
<path fill-rule="evenodd" clip-rule="evenodd" d="M5.91052 6.50001C5.94027 6.50001 5.9701 6.50001 6.00001 6.50001L36.0895 6.50001C36.9551 6.4999 37.7488 6.49981 38.3944 6.58661C39.1054 6.6822 39.8568 6.90709 40.4749 7.52514C41.0929 8.14319 41.3178 8.89464 41.4134 9.6056C41.5002 10.2512 41.5001 11.0449 41.5 11.9105V36.0895C41.5001 36.9551 41.5002 37.7488 41.4134 38.3944C41.3178 39.1054 41.0929 39.8568 40.4749 40.4749C39.8568 41.0929 39.1054 41.3178 38.3944 41.4134C37.7488 41.5002 36.9551 41.5001 36.0895 41.5H5.91053C5.04489 41.5001 4.25122 41.5002 3.6056 41.4134C2.89464 41.3178 2.14319 41.0929 1.52514 40.4749C0.907094 39.8568 0.682199 39.1054 0.586613 38.3944C0.499811 37.7488 0.499905 36.9551 0.500007 36.0895L0.500014 12C0.500014 11.9701 0.50001 11.9403 0.500007 11.9105C0.499905 11.0449 0.499811 10.2512 0.586613 9.6056C0.682199 8.89464 0.907094 8.14319 1.52514 7.52514C2.14319 6.90709 2.89464 6.6822 3.6056 6.58661C4.25122 6.49981 5.04488 6.4999 5.91052 6.50001ZM3.64646 9.64646C3.64715 9.6459 3.64737 9.64555 3.64646 9.64646C3.64555 9.64737 3.6459 9.64715 3.64646 9.64646C3.6465 9.64641 3.64642 9.64651 3.64646 9.64646C3.6459 9.64715 3.64555 9.64737 3.64646 9.64646C3.6465 9.64641 3.64642 9.64651 3.64646 9.64646C3.6459 9.64715 3.64555 9.64737 3.64646 9.64646C3.64737 9.64555 3.64715 9.6459 3.64646 9.64646C3.6465 9.64641 3.64642 9.64651 3.64646 9.64646C3.64737 9.64555 3.64715 9.6459 3.64646 9.64646C3.6465 9.64641 3.64642 9.64651 3.64646 9.64646ZM3.64646 9.64646C3.64594 9.64732 3.64502 9.64889 3.64374 9.65136C3.64172 9.65522 3.63848 9.66185 3.63433 9.67194C3.61641 9.7155 3.58583 9.81223 3.55986 10.0053C3.5032 10.4268 3.50001 11.0148 3.50001 12V36C3.50001 36.9852 3.5032 37.5732 3.55986 37.9947C3.58583 38.1878 3.61641 38.2845 3.63433 38.3281C3.63848 38.3382 3.64172 38.3448 3.64374 38.3487C3.64502 38.3511 3.64594 38.3527 3.64646 38.3536C3.64732 38.3541 3.64889 38.355 3.65136 38.3563C3.65522 38.3583 3.66185 38.3615 3.67194 38.3657C3.7155 38.3836 3.81223 38.4142 4.00534 38.4402C4.42679 38.4968 5.0148 38.5 6.00001 38.5H36C36.9852 38.5 37.5732 38.4968 37.9947 38.4402C38.1878 38.4142 38.2845 38.3836 38.3281 38.3657C38.3342 38.3632 38.339 38.361 38.3427 38.3593C38.3452 38.3581 38.3471 38.3571 38.3487 38.3563C38.3511 38.355 38.3527 38.3541 38.3536 38.3536C38.3541 38.3527 38.355 38.3511 38.3563 38.3487C38.3583 38.3448 38.3615 38.3382 38.3657 38.3281C38.3836 38.2845 38.4142 38.1878 38.4402 37.9947C38.4968 37.5732 38.5 36.9852 38.5 36V12C38.5 11.0148 38.4968 10.4268 38.4402 10.0053C38.4142 9.81223 38.3836 9.7155 38.3657 9.67194C38.3615 9.66185 38.3583 9.65522 38.3563 9.65136C38.355 9.64889 38.3541 9.64732 38.3536 9.64646C38.3527 9.64594 38.3511 9.64502 38.3487 9.64374C38.3448 9.64172 38.3382 9.63848 38.3281 9.63433C38.2845 9.61641 38.1878 9.58583 37.9947 9.55986C37.5732 9.5032 36.9852 9.50001 36 9.50001H6.00001C5.0148 9.50001 4.42679 9.5032 4.00534 9.55986C3.81223 9.58583 3.7155 9.61641 3.67194 9.63433C3.66185 9.63848 3.65522 9.64172 3.65136 9.64374C3.64889 9.64502 3.64732 9.64594 3.64646 9.64646Z" fill="#4FB518"/>
<path d="M2 13C2 11.1144 2 10.1716 2.58579 9.58579C3.17157 9 4.11438 9 6 9H36C37.8856 9 38.8284 9 39.4142 9.58579C40 10.1716 40 11.1144 40 13V17H2V13Z" fill="#4FB518"/>
<path fill-rule="evenodd" clip-rule="evenodd" d="M12 0.5C12.8284 0.5 13.5 1.17157 13.5 2L13.5 8C13.5 8.82843 12.8284 9.5 12 9.5C11.1716 9.5 10.5 8.82843 10.5 8L10.5 2C10.5 1.17157 11.1716 0.499999 12 0.5Z" fill="#4FB518"/>
<path fill-rule="evenodd" clip-rule="evenodd" d="M31 0.5C31.8284 0.5 32.5 1.17157 32.5 2L32.5 8C32.5 8.82843 31.8284 9.5 31 9.5C30.1716 9.5 29.5 8.82843 29.5 8L29.5 2C29.5 1.17157 30.1716 0.499999 31 0.5Z" fill="#4FB518"/>
<rect x="12" y="20" width="7" height="5" rx="0.5" fill="#4FB518"/>
<rect x="12" y="29" width="7" height="5" rx="0.5" fill="#4FB518"/>
<rect x="24" y="20" width="7" height="5" rx="0.5" fill="#4FB518"/>
<rect x="24" y="29" width="7" height="5" rx="0.5" fill="#4FB518"/>
</svg>
