<svg width="23" height="27" viewBox="0 0 23 27" fill="none" xmlns="http://www.w3.org/2000/svg">
<path fill-rule="evenodd" clip-rule="evenodd" d="M22.834 7.30469L22.834 7.22118C22.834 6.09662 22.8341 5.12768 22.7298 4.35176C22.618 3.5202 22.3659 2.72311 21.7193 2.07657C21.0728 1.43004 20.2757 1.17792 19.4441 1.06612C18.6682 0.961799 17.6993 0.961854 16.5747 0.961917L16.4912 0.96192L6.25927 0.961916C5.13471 0.961853 4.16578 0.961799 3.38985 1.06612C2.55829 1.17792 1.7612 1.43004 1.11466 2.07657C0.468128 2.72311 0.216011 3.5202 0.104208 4.35176C-0.000110808 5.12769 -5.74449e-05 6.09664 5.44844e-06 7.22121L4.88664e-06 20.0737C-5.8105e-05 21.1983 -0.000111553 22.1672 0.104207 22.9432C0.21601 23.7747 0.468127 24.5718 1.11466 25.2183C1.7612 25.8649 2.55829 26.117 3.38985 26.2288C4.16578 26.3331 5.13473 26.3331 6.2593 26.333L16.5747 26.333C17.6993 26.3331 18.6682 26.3331 19.4441 26.2288C20.2757 26.117 21.0728 25.8649 21.7193 25.2183C22.3659 24.5718 22.618 23.7747 22.7298 22.9432C22.8341 22.1672 22.834 21.1983 22.834 20.0737L22.834 7.30469ZM19.9253 3.87058C20.0219 3.96715 20.1413 4.1396 20.2153 4.68982C20.2942 5.27654 20.2969 6.07282 20.2969 7.30469L20.2969 19.9902C20.2969 21.2221 20.2942 22.0184 20.2153 22.6051C20.1413 23.1553 20.0219 23.3278 19.9253 23.4243C19.8288 23.5209 19.6563 23.6403 19.1061 23.7143C18.5194 23.7932 17.7231 23.7959 16.4912 23.7959L6.34278 23.7959C5.11091 23.7959 4.31463 23.7932 3.72791 23.7143C3.17769 23.6403 3.00524 23.5209 2.90867 23.4243C2.8121 23.3278 2.69267 23.1553 2.61869 22.6051C2.53981 22.0184 2.53712 21.2221 2.53712 19.9902L2.53712 7.30469C2.53712 6.07282 2.53981 5.27654 2.61869 4.68982C2.69267 4.1396 2.8121 3.96715 2.90867 3.87058C3.00524 3.77401 3.17769 3.65458 3.72791 3.5806C4.31463 3.50172 5.11091 3.49903 6.34278 3.49903L16.4912 3.49903C17.7231 3.49903 18.5194 3.50172 19.1061 3.5806C19.6563 3.65458 19.8288 3.77401 19.9253 3.87058ZM17.7605 18.7217C17.7605 19.4223 17.1925 19.9902 16.4919 19.9902L6.34349 19.9902C5.64288 19.9902 5.07494 19.4223 5.07494 18.7217C5.07494 18.0211 5.64288 17.4531 6.34349 17.4531L16.4919 17.4531C17.1925 17.4531 17.7605 18.0211 17.7605 18.7217ZM13.9541 9.84215C14.6547 9.84215 15.2227 9.2742 15.2227 8.5736C15.2227 7.87299 14.6547 7.30504 13.9541 7.30504L6.34278 7.30504C5.64218 7.30504 5.07423 7.87299 5.07423 8.5736C5.07423 9.2742 5.64218 9.84215 6.34278 9.84215L13.9541 9.84215ZM11.4163 14.9157C12.1169 14.9157 12.6848 14.3477 12.6848 13.6471C12.6848 12.9465 12.1169 12.3786 11.4163 12.3786L6.34207 12.3786C5.64147 12.3786 5.07352 12.9465 5.07352 13.6471C5.07352 14.3477 5.64147 14.9157 6.34207 14.9157L11.4163 14.9157Z" fill="#8F928E"/>
</svg>
