<svg width="23" height="25" viewBox="0 0 23 25" fill="none" xmlns="http://www.w3.org/2000/svg">
<path fill-rule="evenodd" clip-rule="evenodd" d="M4.54545 9.0909C4.54545 5.32533 7.59805 2.27273 11.3636 2.27273C15.1292 2.27273 18.1818 5.32533 18.1818 9.0909C18.1818 11.5293 16.9408 13.5408 15.392 15.103C13.8889 16.619 12.1857 17.6172 11.3636 18.0496C10.5416 17.6172 8.83832 16.619 7.33525 15.103C5.78648 13.5408 4.54545 11.5293 4.54545 9.0909ZM11.3636 0C6.34286 0 2.27273 4.07014 2.27273 9.0909C2.27273 12.3529 3.94023 14.9066 5.72129 16.7031C7.50339 18.5006 9.49452 19.6407 10.3881 20.1041C11.0035 20.4233 11.7238 20.4233 12.3392 20.1041C13.2327 19.6407 15.2239 18.5006 17.006 16.7031C18.787 14.9066 20.4545 12.3529 20.4545 9.0909C20.4545 4.07014 16.3844 0 11.3636 0ZM9.0909 9.0909C9.0909 7.83571 10.1084 6.81818 11.3636 6.81818C12.6188 6.81818 13.6364 7.83571 13.6364 9.0909C13.6364 10.3461 12.6188 11.3636 11.3636 11.3636C10.1084 11.3636 9.0909 10.3461 9.0909 9.0909ZM11.3636 4.54545C8.85324 4.54545 6.81818 6.58052 6.81818 9.0909C6.81818 11.6013 8.85324 13.6364 11.3636 13.6364C13.874 13.6364 15.9091 11.6013 15.9091 9.0909C15.9091 6.58052 13.874 4.54545 11.3636 4.54545ZM20.7889 17.7661C20.2454 17.4523 19.5504 17.6385 19.2366 18.182C18.9228 18.7255 19.109 19.4205 19.6525 19.7343C20.0238 19.9487 20.2416 20.1412 20.3567 20.2843C20.4119 20.353 20.4362 20.4013 20.4464 20.427C20.4514 20.4397 20.4533 20.4475 20.454 20.4509L20.4545 20.4547L20.454 20.4585C20.4533 20.4619 20.4514 20.4697 20.4464 20.4824C20.4362 20.5082 20.4119 20.5564 20.3567 20.6251C20.2416 20.7683 20.0238 20.9608 19.6525 21.1751C18.9064 21.6059 17.7514 22.0046 16.2625 22.2912C14.7872 22.5751 13.0962 22.7274 11.3636 22.7274C9.63105 22.7274 7.94005 22.5751 6.46475 22.2912C4.97584 22.0046 3.82088 21.6059 3.07474 21.1751C2.70343 20.9608 2.48562 20.7683 2.37053 20.6251C2.31534 20.5564 2.29103 20.5082 2.28083 20.4824C2.27581 20.4697 2.27395 20.4619 2.27328 20.4585L2.27276 20.4542L2.27328 20.4509C2.27395 20.4475 2.27581 20.4397 2.28083 20.427C2.29103 20.4013 2.31534 20.353 2.37053 20.2843C2.48562 20.1412 2.70343 19.9487 3.07474 19.7343C3.61825 19.4205 3.80447 18.7255 3.49067 18.182C3.17688 17.6385 2.48189 17.4523 1.93837 17.7661C0.951642 18.3357 0 19.2185 0 20.4547C0 21.691 0.951643 22.5737 1.93838 23.1434C2.98749 23.7491 4.41467 24.2111 6.03524 24.523C7.66942 24.8375 9.50569 25.0002 11.3636 25.0002C13.2216 25.0002 15.0578 24.8375 16.692 24.523C18.3126 24.2111 19.7398 23.7491 20.7889 23.1434C21.7756 22.5737 22.7273 21.691 22.7273 20.4547C22.7273 19.2185 21.7756 18.3357 20.7889 17.7661Z" fill="#8F928E"/>
</svg>
