<svg width="27" height="37" viewBox="0 0 27 37" fill="none" xmlns="http://www.w3.org/2000/svg">
<path fill-rule="evenodd" clip-rule="evenodd" d="M14.1212 0.0587901C13.6803 -0.0195967 13.2288 -0.0195967 12.7879 0.0587901C11.6676 0.257976 10.9409 0.995915 10.4493 1.62509C9.97528 2.2317 9.48097 3.05943 8.93742 3.9696L8.93741 3.96961L8.88154 4.06317L5.75176 9.30278C3.48397 13.0993 1.71451 17.1639 0.485741 21.399C-1.7826 29.2173 4.17865 37 12.4355 37H14.4736C22.7304 37 28.6917 29.2173 26.4234 21.399C25.1946 17.1639 23.4251 13.0993 21.1573 9.30278L18.0276 4.06318L17.9717 3.96959C17.4281 3.05942 16.9338 2.23169 16.4598 1.62509C15.9682 0.995915 15.2415 0.257976 14.1212 0.0587901ZM12.1155 5.93656C12.7336 4.90189 13.1094 4.27951 13.4228 3.87839C13.4338 3.86436 13.4444 3.85103 13.4545 3.83837C13.4647 3.85103 13.4753 3.86436 13.4863 3.87839C13.7997 4.27951 14.1755 4.90189 14.7936 5.93656L17.9233 11.1762C20.0302 14.7033 21.6741 18.4794 22.8157 22.4141C24.3992 27.872 20.2377 33.3051 14.4736 33.3051H12.4355C6.67141 33.3051 2.50987 27.872 4.09339 22.4141C5.23497 18.4794 6.87888 14.7033 8.98575 11.1762L12.1155 5.93656ZM11.2125 26.9806C10.9679 26.1219 10.0298 25.6123 9.11711 25.8424C8.20443 26.0725 7.6628 26.9551 7.90735 27.8139C8.19978 28.8407 8.84415 29.7481 9.74053 30.3952C10.6369 31.0424 11.7352 31.3932 12.865 31.3932C13.8099 31.3932 14.5759 30.6725 14.5759 29.7834C14.5759 28.8944 13.8099 28.1737 12.865 28.1737C12.4884 28.1737 12.1223 28.0568 11.8235 27.8411C11.5247 27.6253 11.31 27.3229 11.2125 26.9806Z" fill="#4FB518"/>
</svg>
