<svg width="20" height="18" viewBox="0 0 20 18" fill="none" xmlns="http://www.w3.org/2000/svg">
<path fill-rule="evenodd" clip-rule="evenodd" d="M2.06317 1.41421L18.0632 17.4142L19.4774 16L17.3772 13.8998C17.9217 13.3555 18.3781 12.836 18.7302 12.4085C18.7538 12.3799 18.7784 12.3504 18.8037 12.3201C19.1171 11.9447 19.5406 11.4375 19.5406 10.707C19.5406 9.9766 19.1171 9.46939 18.8037 9.09397L18.8036 9.09392C18.7783 9.06362 18.7538 9.03418 18.7302 9.00556C17.9903 8.10728 16.7901 6.80293 15.2792 5.71588C13.7761 4.6345 11.8802 3.70703 9.77027 3.70703C8.98986 3.70703 8.23873 3.83392 7.52593 4.04854L3.47739 0L2.06317 1.41421ZM9.21393 5.73654L10.2081 6.73072C12.0675 6.93315 13.5441 8.40983 13.7466 10.2692L15.9629 12.4856C16.4494 11.9993 16.8627 11.53 17.1864 11.137C17.2862 11.0159 17.3607 10.9252 17.4224 10.8455C17.4713 10.7824 17.5024 10.7385 17.5227 10.707C17.5024 10.6756 17.4713 10.6316 17.4224 10.5685C17.3607 10.4888 17.2862 10.3982 17.1864 10.2771C16.5062 9.45121 15.4303 8.28841 14.1111 7.33936C12.7841 6.38463 11.2961 5.70703 9.77027 5.70703C9.58419 5.70703 9.39867 5.71711 9.21393 5.73654ZM14.2894 16.3475L12.8201 14.8782C11.8479 15.3875 10.818 15.707 9.77027 15.707C8.24447 15.707 6.75643 15.0294 5.42941 14.0747C4.11029 13.1256 3.03435 11.9628 2.35413 11.137C2.25436 11.0158 2.17984 10.9252 2.11811 10.8455C2.06925 10.7824 2.03813 10.7385 2.01782 10.707C2.03813 10.6756 2.06925 10.6316 2.11811 10.5685C2.17984 10.4888 2.25436 10.3982 2.35413 10.2771C3.01954 9.4692 4.06361 8.3389 5.34358 7.40166L3.91485 5.97293C2.56669 7.00319 1.49273 8.17708 0.810358 9.00556C0.786772 9.03419 0.762187 9.06364 0.736886 9.09395L0.736869 9.09397C0.423445 9.46939 0 9.9766 0 10.707C0 11.4375 0.423444 11.9447 0.736868 12.3201L0.737087 12.3204C0.762317 12.3506 0.786833 12.3799 0.810357 12.4085C1.55022 13.3068 2.75044 14.6111 4.26138 15.6982C5.76442 16.7796 7.66034 17.707 9.77027 17.707C11.4403 17.707 12.9762 17.126 14.2894 16.3475ZM6.43703 8.49502C6.01574 9.12859 5.77026 9.88914 5.77026 10.707C5.77026 12.9162 7.56112 14.707 9.77026 14.707C10.5882 14.707 11.3487 14.4616 11.9823 14.0403L10.5084 12.5664C10.28 12.6571 10.031 12.707 9.77026 12.707C8.66569 12.707 7.77026 11.8116 7.77026 10.707C7.77026 10.4463 7.82015 10.1973 7.91089 9.96888L6.43703 8.49502Z" fill="#C7C9C7"/>
</svg>
