<svg width="20" height="23" viewBox="0 0 20 23" fill="none" xmlns="http://www.w3.org/2000/svg">
<path fill-rule="evenodd" clip-rule="evenodd" d="M5.93268 5.19357C7.12178 4.17434 7.92668 3.48746 8.60171 3.04163C9.24749 2.61511 9.64429 2.49994 10 2.49994C10.3558 2.49994 10.7526 2.61511 11.3984 3.04163C12.0734 3.48746 12.8783 4.17434 14.0674 5.19357L15.3174 6.26497C16.6928 7.44391 17.0692 7.80174 17.2712 8.24088C17.4731 8.68003 17.4999 9.19867 17.4999 11.0102V16.3106C17.4999 17.5244 17.4972 18.309 17.4195 18.8871C17.3466 19.4293 17.2289 19.5992 17.1338 19.6944C17.0386 19.7895 16.8687 19.9072 16.3265 19.9801C15.8543 20.0436 15.2442 20.057 14.375 20.0598V15.0607C14.375 13.68 13.2557 12.5607 11.875 12.5607H8.12512C6.74444 12.5607 5.62518 13.68 5.62518 15.0607V20.0598C4.7559 20.057 4.14583 20.0436 3.67356 19.9801C3.1314 19.9072 2.96147 19.7895 2.86632 19.6944C2.77116 19.5992 2.65348 19.4293 2.58059 18.8871C2.50286 18.309 2.50021 17.5244 2.50021 16.3106V11.0102C2.50021 9.19867 2.52694 8.68003 2.72892 8.24088C2.9309 7.80174 3.30728 7.44391 4.68271 6.26497L5.93268 5.19357ZM6.86155 22.5604C6.86607 22.5605 6.87061 22.5605 6.87515 22.5605C6.87969 22.5605 6.88422 22.5605 6.88875 22.5604H13.1114C13.1159 22.5605 13.1205 22.5605 13.125 22.5605C13.1295 22.5605 13.1341 22.5605 13.1386 22.5604H13.8322H13.8322C14.9403 22.5605 15.8951 22.5606 16.6596 22.4578C17.479 22.3476 18.2644 22.0992 18.9015 21.4621C19.5385 20.8251 19.787 20.0396 19.8971 19.2203C19.9999 18.4557 19.9999 17.501 19.9998 16.3929L19.9998 11.0102L19.9999 10.7742C20.0012 9.30909 20.0022 8.19593 19.5424 7.19627C19.0826 6.1966 18.2368 5.47289 17.1236 4.52038L16.9443 4.36687L15.6336 3.2434L15.6336 3.24338C14.5208 2.28952 13.5975 1.4981 12.7761 0.955592C11.9105 0.383919 11.0315 0 10 0C8.9686 0 8.08953 0.383919 7.22397 0.955592C6.40256 1.4981 5.47927 2.28953 4.3665 3.24339L4.30574 3.29547L3.05577 4.36687L2.87646 4.52039C1.76327 5.47289 0.91747 6.1966 0.457689 7.19627C-0.00209155 8.19593 -0.00113253 9.30909 0.000129716 10.7742L0.00026442 11.0102L0.00026144 16.3929C0.000199154 17.501 0.000145656 18.4557 0.102938 19.2203C0.2131 20.0396 0.461526 20.8251 1.09859 21.4621C1.73565 22.0992 2.52107 22.3476 3.34045 22.4578C4.10501 22.5606 5.05975 22.5605 6.16784 22.5604H6.16786H6.86155ZM11.875 20.0605H8.12512V15.0607H11.875V20.0605Z" fill="#31581C"/>
</svg>
