<svg width="28" height="31" viewBox="0 0 28 31" fill="none" xmlns="http://www.w3.org/2000/svg">
<path fill-rule="evenodd" clip-rule="evenodd" d="M5.59998 11.3992C5.59998 6.76003 9.36078 2.99922 14 2.99922C18.6392 2.99922 22.4 6.76003 22.4 11.3992C22.4 14.4033 20.871 16.8815 18.9629 18.8061C17.1112 20.6739 15.0127 21.9037 14 22.4364C12.9872 21.9037 10.8888 20.6739 9.03701 18.8061C7.12893 16.8815 5.59998 14.4033 5.59998 11.3992ZM14 0.199219C7.81439 0.199219 2.79998 5.21363 2.79998 11.3992C2.79998 15.418 4.85434 18.5642 7.0486 20.7774C9.24416 22.992 11.6972 24.3965 12.7981 24.9675C13.5563 25.3608 14.4437 25.3608 15.2018 24.9675C16.3027 24.3965 18.7558 22.992 20.9513 20.7774C23.1456 18.5642 25.2 15.418 25.2 11.3992C25.2 5.21363 20.1856 0.199219 14 0.199219ZM11.2 11.3992C11.2 9.85282 12.4536 8.59922 14 8.59922C15.5464 8.59922 16.8 9.85282 16.8 11.3992C16.8 12.9456 15.5464 14.1992 14 14.1992C12.4536 14.1992 11.2 12.9456 11.2 11.3992ZM14 5.79922C10.9072 5.79922 8.39997 8.30642 8.39997 11.3992C8.39997 14.492 10.9072 16.9992 14 16.9992C17.0928 16.9992 19.6 14.492 19.6 11.3992C19.6 8.30642 17.0928 5.79922 14 5.79922ZM25.6119 22.0872C24.9423 21.7006 24.0861 21.93 23.6995 22.5996C23.3129 23.2692 23.5423 24.1255 24.2119 24.5121C24.6694 24.7762 24.9377 25.0133 25.0795 25.1897C25.1475 25.2743 25.1775 25.3338 25.19 25.3655C25.1962 25.3812 25.1985 25.3908 25.1993 25.395L25.2 25.3996L25.1993 25.4043C25.1985 25.4085 25.1962 25.4181 25.19 25.4338C25.1775 25.4655 25.1475 25.525 25.0795 25.6095C24.9377 25.7859 24.6694 26.0231 24.2119 26.2872C23.2927 26.8179 21.8698 27.3092 20.0354 27.6622C18.2178 28.012 16.1345 28.1996 14 28.1996C11.8655 28.1996 9.78216 28.012 7.96458 27.6622C6.13025 27.3092 4.70733 26.8179 3.78808 26.2872C3.33063 26.0231 3.06229 25.7859 2.9205 25.6095C2.8525 25.525 2.82255 25.4655 2.80999 25.4338C2.8038 25.4181 2.80151 25.4085 2.80068 25.4043L2.80004 25.399L2.80068 25.395C2.80151 25.3908 2.8038 25.3812 2.80999 25.3655C2.82255 25.3338 2.8525 25.2743 2.9205 25.1897C3.06229 25.0133 3.33063 24.7762 3.78808 24.5121C4.45769 24.1255 4.68711 23.2692 4.30051 22.5996C3.91392 21.93 3.05769 21.7006 2.38808 22.0872C1.17242 22.7891 0 23.8766 0 25.3996C0 26.9227 1.17243 28.0102 2.38808 28.7121C3.68059 29.4583 5.43887 30.0275 7.43543 30.4117C9.44873 30.7992 11.711 30.9996 14 30.9996C16.289 30.9996 18.5513 30.7992 20.5646 30.4117C22.5611 30.0275 24.3194 29.4583 25.6119 28.7121C26.8276 28.0102 28 26.9227 28 25.3996C28 23.8766 26.8276 22.7891 25.6119 22.0872Z" fill="#31581C"/>
</svg>
