<svg width="169" height="38" viewBox="0 0 169 38" fill="none" xmlns="http://www.w3.org/2000/svg">
<g clip-path="url(#clip0_1_435)">
<path fill-rule="evenodd" clip-rule="evenodd" d="M8.0952 22.6728L8.35163 22.2801L11.1104 26.5465C11.1258 26.5692 11.1466 26.5878 11.1709 26.6007C11.1951 26.6136 11.2222 26.6203 11.2497 26.6203C11.2772 26.6203 11.3043 26.6136 11.3286 26.6007C11.3529 26.5878 11.3736 26.5692 11.389 26.5465C12.4501 24.9317 13.7322 22.9331 15.0365 20.9168C15.0531 20.8894 15.0616 20.8578 15.0608 20.8257C15.06 20.7937 15.05 20.7625 15.032 20.7359C13.9444 19.0418 12.9541 17.4843 12.2069 16.324L13.9135 13.6768C14.9038 15.2122 15.8455 16.6725 16.6148 17.8991C16.63 17.9227 16.651 17.9422 16.6757 17.9557C16.7004 17.9692 16.7281 17.9763 16.7563 17.9763C16.7845 17.9763 16.8122 17.9692 16.8369 17.9557C16.8617 17.9422 16.8826 17.9227 16.8978 17.8991C18.7149 15.0754 20.3198 12.543 21.0891 11.3341C21.1066 11.308 21.1159 11.2773 21.1159 11.2459C21.1159 11.2145 21.1066 11.1837 21.0891 11.1576C20.0457 9.53403 19.0863 8.02956 18.3303 6.84275C16.3009 3.63086 14.5413 0.882228 14.0417 0.0748439C14.0271 0.0511231 14.0066 0.0315383 13.9822 0.0179541C13.9578 0.00436977 13.9304 -0.00276184 13.9024 -0.00276184C13.8745 -0.00276184 13.8471 0.00436977 13.8227 0.0179541C13.7983 0.0315383 13.7778 0.0511231 13.7632 0.0748439C12.6446 1.83962 5.15069 13.6327 2.38302 17.7005C1.37936 19.1392 0.666061 20.7591 0.282956 22.4698C0.101042 23.2915 0.00620169 24.1299 0 24.9714C0.0256312 27.1514 0.607359 29.289 1.69031 31.1826C2.77326 33.0761 4.32174 34.6631 6.18967 35.7939C6.21859 35.8126 6.25257 35.8219 6.28701 35.8207C6.32145 35.8195 6.35467 35.8077 6.38218 35.787C6.40969 35.7663 6.43016 35.7376 6.4408 35.7049C6.45144 35.6722 6.45175 35.637 6.44167 35.6042C5.98553 34.1125 5.75166 32.5621 5.74755 31.0025C5.75705 28.0646 6.56868 25.1849 8.0952 22.6728Z" fill="#4FB518"/>
<path fill-rule="evenodd" clip-rule="evenodd" d="M25.4042 17.683C24.8029 16.8007 23.9894 15.5609 23.0433 14.1535C23.0286 14.1298 23.0082 14.1102 22.9838 14.0966C22.9594 14.083 22.9319 14.0759 22.904 14.0759C22.8761 14.0759 22.8486 14.083 22.8243 14.0966C22.7999 14.1102 22.7794 14.1298 22.7648 14.1535L18.3436 21.0846C18.3198 21.1132 18.3068 21.149 18.3068 21.1861C18.3068 21.2232 18.3198 21.2591 18.3436 21.2876C19.38 22.3084 19.9723 23.695 19.9927 25.148C19.9927 28.3202 17.2692 30.8835 13.9003 30.8835C12.9977 30.8889 12.1047 30.6984 11.2833 30.3251C10.4618 29.9518 9.73154 29.4047 9.14307 28.7217C9.12231 28.6965 9.09464 28.6779 9.06346 28.6682C9.03227 28.6585 8.99891 28.658 8.96748 28.6669C8.93604 28.6758 8.90788 28.6937 8.88646 28.7183C8.86503 28.7429 8.85127 28.7732 8.84685 28.8055C8.64823 30.4509 8.7124 32.1172 9.03696 33.7425C9.29475 35.0411 9.71047 36.3034 10.2749 37.5015C10.2867 37.5239 10.303 37.5437 10.3227 37.5597C10.3425 37.5756 10.3653 37.5873 10.3898 37.5941C11.538 37.8811 12.7166 38.0292 13.9003 38.0353C21.5755 38.0353 27.7872 32.216 27.7872 25.0245C27.7636 22.3918 26.9319 19.8296 25.4042 17.683Z" fill="#4FB518"/>
<path d="M37.6421 33.1513H41.0508V24.548H50.1452V21.4067H41.0508V15.658H50.9057V12.4902H37.6421V33.1513Z" fill="#1F261E"/>
<path d="M62.0646 26.8599C62.0646 28.9511 60.8355 30.2968 58.9344 30.2968C57.0332 30.2968 55.9368 29.0658 55.9368 26.9128V19.0022H52.6121V27.6717C52.6121 31.2321 54.6591 33.4425 57.9484 33.4425C58.7525 33.4583 59.549 33.2862 60.2745 32.9399C61 32.5937 61.6342 32.0828 62.1265 31.4483V33.1513H65.3539V19.0022H62.0469L62.0646 26.8599Z" fill="#1F261E"/>
<path d="M74.7182 18.7154C73.7649 18.6928 72.8176 18.8722 71.9389 19.2418C71.0601 19.6114 70.27 20.1628 69.6206 20.8596C68.2799 22.2539 67.5457 24.1204 67.578 26.0525C67.5507 27.0279 67.7233 27.9987 68.0852 28.9053C68.4471 29.8118 68.9906 30.6351 69.6825 31.3247C70.3809 32.0111 71.2105 32.5503 72.1219 32.9103C73.0333 33.2703 74.008 33.4438 74.9879 33.4204C76.2148 33.4573 77.4284 33.158 78.497 32.5553C79.5656 31.9525 80.4483 31.0692 81.0493 30.0012L81.0891 29.9262L78.6973 28.3202L78.6486 28.4129C78.3093 29.0876 77.7792 29.6483 77.1238 30.0255C76.4684 30.4027 75.7166 30.5798 74.9614 30.535C73.9423 30.5587 72.9493 30.2122 72.1672 29.56C71.8018 29.2602 71.5042 28.8866 71.2939 28.4638C71.0836 28.041 70.9653 27.5786 70.9469 27.1069H81.5578V27.0231C81.5938 26.6994 81.6115 26.3738 81.6108 26.0481C81.6108 23.8421 81.0096 22.117 79.776 20.7538C78.5425 19.3905 76.8581 18.7154 74.7182 18.7154ZM74.7182 21.57C76.7077 21.57 78.1181 22.7612 78.2552 24.5436H71.1194C71.2544 23.6961 71.6943 22.9267 72.3567 22.3794C73.0191 21.832 73.8586 21.5443 74.7182 21.57Z" fill="#1F261E"/>
<path d="M87.2699 11.6784H83.9629V33.1513H87.2699V11.6784Z" fill="#1F261E"/>
<path d="M106.639 25.7569C106.148 27.0669 105.263 28.1934 104.106 28.982C102.791 29.9006 101.191 30.3197 99.5932 30.1636C97.9959 30.0074 96.5072 29.2863 95.3961 28.1305C94.7139 27.4211 94.1812 26.5824 93.8295 25.6639C93.4779 24.7454 93.3146 23.7659 93.3491 22.7832C93.3087 21.802 93.4716 20.823 93.8276 19.9075C94.1836 18.992 94.7251 18.1596 95.4182 17.4624C96.0407 16.8072 96.7909 16.2861 97.6227 15.931C98.4545 15.5759 99.3503 15.3944 100.255 15.3977C103.222 15.3977 105.459 16.9639 106.56 19.8096L106.595 19.9022L109.69 18.4904L109.663 18.4154C109.109 16.7839 108.089 15.3499 106.728 14.2903C105.176 12.9667 102.841 12.2034 100.326 12.2034C98.9256 12.2015 97.539 12.4775 96.2467 13.0152C94.9544 13.5529 93.7821 14.3417 92.798 15.3356C91.814 16.3295 91.0377 17.5087 90.5145 18.8047C89.9913 20.1007 89.7315 21.4876 89.7502 22.8847C89.7156 24.3382 89.9879 25.7826 90.5492 27.1242C91.1106 28.4658 91.9486 29.6745 93.0087 30.6718C94.9909 32.4078 97.5337 33.3727 100.171 33.3895C102.515 33.4339 104.806 32.6895 106.675 31.2762C108.074 30.22 109.146 28.7919 109.769 27.1555L109.796 27.0716L106.701 25.6642L106.639 25.7569Z" fill="#1F261E"/>
<path d="M118.784 18.8698C118.026 18.8487 117.275 19.0333 116.614 19.4039C115.952 19.7745 115.403 20.3172 115.026 20.9743V19.0022H111.799V33.1513H115.106V25.9731C115.106 23.573 116.366 22.2494 118.643 22.2494C118.939 22.2443 119.235 22.2695 119.527 22.3244H119.637V18.9713H119.567C119.312 18.9008 119.048 18.8667 118.784 18.8698Z" fill="#1F261E"/>
<path d="M127.587 18.7154C126.63 18.6899 125.678 18.8679 124.796 19.2376C123.913 19.6073 123.119 20.1602 122.467 20.8596C121.128 22.255 120.394 24.1208 120.424 26.0525C120.403 27.0308 120.582 28.0031 120.95 28.9098C121.319 29.8165 121.87 30.6383 122.569 31.3247C123.267 32.0119 124.096 32.5516 125.008 32.9117C125.919 33.2718 126.894 33.4448 127.874 33.4204C129.1 33.4574 130.314 33.1582 131.381 32.5554C132.449 31.9526 133.331 31.0691 133.931 30.0012L133.971 29.9262L131.561 28.329L131.513 28.4217C131.173 29.0972 130.642 29.6583 129.986 30.0356C129.33 30.4128 128.577 30.5895 127.821 30.5438C126.81 30.5603 125.827 30.2108 125.053 29.56C124.687 29.2604 124.389 28.887 124.178 28.4642C123.967 28.0414 123.848 27.5789 123.829 27.1069H134.44V27.0231C134.476 26.6935 134.494 26.3621 134.493 26.0304C134.493 23.8245 133.896 22.0994 132.662 20.7361C131.429 19.3728 129.744 18.7154 127.587 18.7154ZM127.587 21.57C129.572 21.57 130.982 22.7612 131.124 24.5436H124.001C124.136 23.6984 124.574 22.9308 125.233 22.3838C125.893 21.8368 126.729 21.5476 127.587 21.57Z" fill="#1F261E"/>
<path d="M147.61 20.7758C147.118 20.116 146.446 19.612 145.674 19.3243C144.89 18.9561 144.038 18.7562 143.171 18.7375C142.204 18.705 141.241 18.8885 140.354 19.2748C139.467 19.661 138.677 20.2402 138.043 20.9699C136.783 22.3628 136.092 24.1762 136.106 26.0525C136.085 27.9557 136.797 29.7943 138.096 31.188C138.721 31.8901 139.492 32.4483 140.354 32.8238C141.217 33.1994 142.151 33.3834 143.092 33.3631C143.972 33.3363 144.839 33.1384 145.643 32.7807C146.466 32.4662 147.178 31.9168 147.69 31.2012V33.1513H150.917V11.6784H147.61V20.7758ZM146.51 22.9818C147.254 23.8341 147.664 24.9264 147.664 26.0569C147.664 27.1874 147.254 28.2797 146.51 29.132C146.137 29.5366 145.68 29.8554 145.172 30.0664C144.664 30.2775 144.115 30.3756 143.565 30.3541C143.01 30.3705 142.458 30.2688 141.946 30.0558C141.434 29.8428 140.973 29.5234 140.594 29.1188C139.866 28.2588 139.466 27.1694 139.466 26.0437C139.466 24.9179 139.866 23.8285 140.594 22.9685C140.969 22.5575 141.429 22.2326 141.942 22.0163C142.454 21.7999 143.008 21.6973 143.565 21.7156C144.119 21.6972 144.669 21.8008 145.178 22.0188C145.687 22.2369 146.142 22.5642 146.51 22.9774V22.9818Z" fill="#1F261E"/>
<path d="M157.465 19.0022H154.158V33.1557H157.465V19.0022Z" fill="#1F261E"/>
<path d="M155.573 12.4108C155.151 12.42 154.742 12.5518 154.394 12.7899C154.047 13.028 153.776 13.3622 153.616 13.7514C153.456 14.1406 153.413 14.568 153.493 14.9811C153.573 15.3942 153.772 15.7751 154.065 16.0771C154.262 16.2769 154.497 16.4357 154.755 16.544C155.014 16.6523 155.292 16.7082 155.573 16.7082C155.854 16.7082 156.131 16.6523 156.39 16.544C156.649 16.4357 156.884 16.2769 157.081 16.0771C157.374 15.7751 157.573 15.3942 157.653 14.9811C157.732 14.568 157.69 14.1406 157.53 13.7514C157.369 13.3622 157.099 13.028 156.752 12.7899C156.404 12.5518 155.994 12.42 155.573 12.4108Z" fill="#1F261E"/>
<path d="M169 21.9891V19.0022H165.565V14.6873H162.258V19.0022H159.689V21.9891H162.258V28.5629C162.258 31.6248 164.026 33.3101 167.201 33.3101C167.784 33.3129 168.363 33.2129 168.912 33.0145H168.973V30.1909L168.858 30.2174C168.538 30.289 168.21 30.3231 167.881 30.3188C166.259 30.3188 165.565 29.6526 165.565 28.0864V21.9891H169Z" fill="#1F261E"/>
</g>
<defs>
<clipPath id="clip0_1_435">
<rect width="169" height="38" fill="white"/>
</clipPath>
</defs>
</svg>
