<svg width="24" height="25" viewBox="0 0 24 25" fill="none" xmlns="http://www.w3.org/2000/svg">
<path fill-rule="evenodd" clip-rule="evenodd" d="M11.5364 0C7.34138 0 3.81717 3.15432 3.3539 7.32373L3.03158 10.2241C2.89055 11.4531 2.4905 12.6383 1.85783 13.7014L1.07017 15.0142C0.768269 15.5173 0.494751 15.9731 0.312559 16.3599C0.127412 16.7531 -0.0705523 17.2857 0.0247378 17.8896C0.118924 18.4866 0.426146 19.0292 0.889552 19.4171C1.35839 19.8095 1.91699 19.9138 2.34935 19.9573C2.7748 20.0001 3.30636 20 3.89308 20H3.89311H6.72159C6.9826 21.2945 7.5184 22.4963 8.30999 23.4074C9.14794 24.3719 10.2736 25 11.5364 25C12.7993 25 13.925 24.3719 14.7629 23.4074C15.5545 22.4963 16.0903 21.2945 16.3513 20H19.1798H19.1798C19.7665 20 20.2981 20.0001 20.7236 19.9573C21.1559 19.9138 21.7145 19.8095 22.1833 19.4171C22.6468 19.0292 22.954 18.4866 23.0482 17.8896C23.1435 17.2857 22.9455 16.7531 22.7603 16.3599C22.5781 15.9731 22.3046 15.5173 22.0027 15.0142L21.2151 13.7014C20.5824 12.6383 20.1824 11.4531 20.0413 10.2241L19.719 7.32373C19.2557 3.15432 15.7315 0 11.5364 0ZM13.7807 20H9.29224C9.50184 20.7325 9.8233 21.3374 10.1972 21.7678C10.6691 22.3109 11.1483 22.5 11.5364 22.5C11.9246 22.5 12.4038 22.3109 12.8757 21.7678C13.2496 21.3374 13.5711 20.7325 13.7807 20ZM5.83861 7.59981C6.1612 4.69648 8.61525 2.5 11.5364 2.5C14.4576 2.5 16.9117 4.69648 17.2343 7.59981L17.5576 10.5091C17.7389 12.0893 18.2533 13.6131 19.0667 14.9799L19.8288 16.2502C20.1707 16.82 20.3767 17.1663 20.4986 17.4251C20.5053 17.4393 20.5114 17.4526 20.517 17.4651C20.5034 17.4667 20.4889 17.4683 20.4733 17.4698C20.1886 17.4985 19.7857 17.5 19.1212 17.5H3.95174C3.28725 17.5 2.88428 17.4985 2.5996 17.4698C2.58403 17.4683 2.56947 17.4667 2.55589 17.4651C2.5615 17.4526 2.56761 17.4393 2.57428 17.4251C2.69619 17.1663 2.90221 16.82 3.24409 16.2502L4.00618 14.9799C4.8196 13.6131 5.33395 12.0893 5.51528 10.5091L5.83861 7.59981Z" fill="#8F928E"/>
</svg>
