<svg width="79" height="68" viewBox="0 0 79 68" fill="none" xmlns="http://www.w3.org/2000/svg">
<path d="M9.00992 46.1811H7.91521L7.5384 46.1057H7.50121C5.99637 42.2128 5.22968 38.0737 5.24034 33.9C5.24426 32.6541 5.31522 31.4092 5.45224 30.1711L5.48992 30.3032L5.65924 30.7167L5.82856 31.1875L6.16818 31.8476L6.31841 32.2244L6.48773 32.5249L6.92131 33.1464L7.16599 33.4483L7.3774 33.7498L8.97958 35.3314L9.26096 35.5771L9.90203 36.0097L10.2191 36.2211L11.4817 36.9747L11.9525 37.144L12.9508 37.5208L13.2894 37.6906L13.607 37.8032L13.9838 37.8972L14.3601 38.0102L14.6998 38.1046L15.0766 38.1795L15.5092 38.2368L15.886 38.274L16.1311 38.3498L16.2623 38.5191L16.2065 38.8578L16.0372 39.1974L15.9237 39.5742L15.6222 40.1952L15.4108 40.5725L15.2415 40.9493L15.0296 41.288L14.8608 41.5703L14.4086 42.2486L14.2383 42.46L13.975 42.8368L13.7636 43.1754L13.5517 43.4769L13.307 43.7592L12.4609 44.6058L11.8771 45.0194L11.5595 45.2308L10.9199 45.6076L10.5813 45.7769L10.1281 45.9472L9.7513 46.0783L9.37498 46.1165L9.00992 46.1811ZM8.46379 28.7558L8.36934 28.379L8.33117 27.9645V26.8346L8.42562 26.081L8.50098 25.6484L8.63311 25.1027L8.84451 24.4812L9.05641 23.9728L9.22524 23.6552L9.60205 23.2216L10.111 22.7699L10.6948 22.3931L11.3168 22.0545L11.9569 21.8431L12.4859 21.7491L12.919 21.7109L13.4646 21.7491L14.1238 21.8431L14.6699 21.9752L15.0467 22.1254L15.3849 22.2947L15.6672 22.5213L16.0059 22.766L16.2691 23.0479L16.481 23.2745L16.6924 23.5568L16.9043 23.8955L17.0737 24.2723L17.2425 24.724L17.4544 25.2329L17.5865 25.6097L17.7367 26.3628L17.8312 26.9085L17.9061 27.4174L17.9623 27.8324L18 28.3413V30.6012L17.9061 31.0906V31.4674L17.793 32.6164L17.7367 33.0309L17.6986 33.5208L17.6237 34.0669L17.3599 35.1968L17.2097 35.6676L16.9083 35.95L16.5696 36.0062L16.1928 35.9118L15.7783 35.8369L14.7203 35.4983L14.3058 35.329L14.0611 35.2541L13.5904 35.0422L13.3462 34.9482L12.9317 34.7363L12.6297 34.5249L12.2916 34.3135L12.0087 34.1016L11.6706 33.8384L11.3687 33.5937L10.7848 33.0099L10.6155 32.7985L10.3332 32.497L9.82422 31.9127L9.6549 31.5741L9.44349 31.1973L9.2316 30.9154L9.06228 30.5768L8.89296 30.1999L8.76083 29.8613L8.51615 29.1082L8.46379 28.7558ZM69.8085 48.3872C67.7635 52.7108 64.8272 56.5531 61.1925 59.6619C57.5577 62.7707 53.3067 65.0757 48.7182 66.4257C44.1298 67.7756 39.3078 68.14 34.5686 67.4949C29.8294 66.8498 25.2802 65.2098 21.2196 62.6825C15.7895 59.3029 11.4254 54.4572 8.63066 48.7043H8.7437L9.12051 48.647L9.55311 48.6103L9.79877 48.5721L10.2123 48.534L10.5901 48.4028L10.9669 48.3279L11.3432 48.1953L11.6818 48.1014L12.0587 47.9883L12.3978 47.819L12.7746 47.6071L13.2826 47.3057L13.7352 47.0615L14.0739 46.8496L14.6577 46.3411L15.2038 45.795L15.449 45.5836L15.7504 45.3007L16.0333 45.0375L16.2965 44.7551L16.508 44.4155L17.0169 43.8312L17.2234 43.5307L17.4691 43.1534L17.6379 42.9415L18.0529 42.2633L18.2222 41.8864L18.4336 41.5101L18.5648 41.2987L19.1872 40.0362L19.3986 39.5468L19.5298 39.17L19.8694 38.4917L20.1141 38.2803L20.4532 38.205L20.83 38.1477L21.2435 38.0728L21.6776 37.9417L22.0544 37.8653L22.3715 37.7714L22.7102 37.6588L23.1246 37.4327L23.3879 37.3579L23.8029 37.1876L24.1415 37.0559L24.5184 36.9057L25.2715 36.5284L25.4829 36.3972L25.8979 36.2279L26.1993 36.0395L26.1612 36.1516L26.0858 36.5284L25.8225 37.2825L25.7476 37.6001L25.6713 37.9769L25.5401 38.3532L25.4462 38.73L25.3699 39.0697L25.2005 39.8228L25.0694 40.1996L24.9177 40.9156L24.787 41.2924L24.6162 42.046L24.5795 42.4223L24.4851 42.7609L24.4474 43.1378L24.3153 43.5151L24.2399 43.8919L24.1088 44.2687L24.0706 44.645L23.9952 44.9836L23.8631 45.36L23.7882 45.7368L23.6561 46.1136L23.6189 46.4899L23.4496 47.2445L23.4863 47.752L23.6982 48.1288L24.075 48.2991L24.5839 48.3744L25.2426 48.3363L25.9581 48.167L26.5047 47.8283L26.8066 47.4505L26.9759 47.0742L27.0126 46.6974L27.089 46.3206L27.1262 45.9443L27.3895 44.8138L27.4658 44.3626L27.5598 44.1361L27.6728 43.6844L27.7291 43.3076L27.8039 42.9307L27.8793 42.5916L28.0114 42.2148L28.1054 41.838L28.2189 41.4612L28.3129 41.0849L28.4264 40.5392L28.5576 40.0303L28.6897 39.6535L28.859 39.2767L29.1761 38.6175L29.3078 38.2402L29.5192 37.9016L29.6895 37.5629L29.9342 37.2233L30.1974 36.8465L30.3668 36.6351L30.6119 36.2964L30.8566 36.0141L31.068 35.7126L31.3695 35.4303L31.7463 35.0902L32.2919 34.6385L32.8762 34.2059L33.2158 33.9945L33.5173 33.7826L33.8344 33.6133L34.2112 33.443L34.5508 33.3309L35.3044 33.1606L35.7189 33.1048L36.0957 33.1988L36.4339 33.3309L36.7735 33.5428L37.0182 33.8266L37.1503 34.3341L37.187 34.843L37.0745 35.2198L36.9428 35.5369L36.7735 35.8756L36.5621 36.2152L36.3502 36.5157L36.0869 36.7995L35.5976 37.307L34.0893 38.4369L33.6186 38.7193L33.2051 39.0207L32.1471 39.5297L31.8299 39.7411L31.4341 39.9104L31.0191 40.1551L30.7377 40.4565L30.6056 40.8333V41.2101L30.6437 41.5874V42.7512L30.7377 43.5058L30.7749 43.9193L30.813 44.2961L30.9824 45.0492L31.1145 45.4255L31.2271 45.7651L31.5662 46.4806L31.9802 47.1589L32.2063 47.4412L32.4886 47.6864L32.7906 47.912L33.1077 48.1234L33.4463 48.2937L33.8231 48.4062L34.1627 48.5384L34.5396 48.5765L35.0098 48.6132H35.7072L36.084 48.5765L36.4608 48.4439L37.1753 48.2325L37.5154 48.1195L38.1931 47.6864L38.7775 47.2719L39.3231 46.7258L39.6059 46.4806L39.9441 46.142L40.868 45.1065L41.1127 44.8045L41.3241 44.5031L41.9588 43.5058L42.2412 43.0908L42.5426 42.62L42.9576 41.9608L43.1269 41.584L43.3383 41.1123L43.6398 40.5299L43.7528 40.2838L43.8654 40.115L43.9784 39.9031L44.0166 39.8282L44.1859 39.4323L44.3973 39.0178L44.6087 38.5656L44.8338 38.0567L44.9855 37.6799L45.2121 37.2096L45.4181 36.7197L45.5317 36.3429L45.6638 36.0043L45.7949 35.6275L46.1727 34.6292L46.2848 34.2524L46.3787 33.9137L46.4551 33.5364L46.5862 33.1596L46.6616 32.7828L46.8319 32.406L47.1705 32.312L47.5097 32.5758L47.7543 32.8596L48.4326 33.6123L48.6768 33.9509L49.0913 34.6292L49.1857 35.119L49.0536 35.7591L48.8417 36.2118L48.389 36.89L48.0504 37.4729L47.8052 37.8125L47.4666 38.2642L47.2033 38.7159L46.9914 39.1118L46.7091 39.5267L46.4076 39.9784L46.1957 40.3552L45.951 40.8255L45.7401 41.2787L45.5708 41.6555L45.4387 41.9936L45.3065 42.3704L45.1367 43.8777V44.2545L45.194 44.6313L45.2689 45.0081L45.3442 45.4216L45.4382 45.7994L45.6075 46.1376L45.7768 46.5144L45.9887 46.8158L46.2339 47.1545L46.4972 47.4001L46.78 47.6443L47.4015 48.0593L47.8346 48.2854L48.1742 48.3974L49.0027 48.5677L49.5484 48.6049H50.5095L50.924 48.5296L51.2626 48.4356L51.6389 48.3226L51.9785 48.1532L52.3554 47.9839L53.0336 47.6443L53.4099 47.4001L53.7275 47.1545L54.2365 46.6465L54.5379 46.4013L55.0278 45.7994L55.3292 45.3844L55.6679 44.9327L56.1577 44.2545L56.3691 43.9374L56.3882 44.2197L56.4636 44.7654L56.5194 45.1804L56.6329 45.726L56.8962 46.3485L57.1418 46.8192L57.3532 47.1574L57.5646 47.4402L58.1489 47.9492L58.4494 48.1606L58.789 48.2927L59.1653 48.4048L59.6552 48.5374L60.1641 48.6123L60.5781 48.6695L61.3313 48.5751L61.8784 48.4429L62.5561 48.2315L63.1772 47.9492L63.6479 47.6472L63.9875 47.4358L64.2704 47.2244L64.5709 46.9788L64.816 46.7155L65.1175 46.4698L65.3294 46.1694L65.5736 45.887L65.7855 45.5856L66.0487 45.3032L66.4632 44.7189L66.8782 44.0411L67.0842 43.7392L67.2169 43.8336L67.1787 44.3426L67.1224 44.8711V45.3051L67.1787 45.8513L67.2917 46.3411L67.4239 46.7175L67.7067 47.1882L68.0082 47.6032L68.3096 47.8474L68.592 48.0593L68.9688 48.1914L69.4767 48.3226L69.8085 48.3872Z" fill="#3AB795"/>
<path d="M72.9584 31.5266L71.9229 31.0558L71.4703 30.9428L71.0935 30.8483L70.171 30.679L69.2104 30.6041L68.3638 30.566H67.8548L67.4785 30.6041L66.4425 30.679L66.028 30.8102L65.5191 30.9423L65.0112 31.093L64.5962 31.3191L64.1254 31.5638L63.6355 31.7752L63.2592 31.9455L62.9578 32.1569L62.6191 32.3688L62.0348 32.8396L61.5832 33.1567L61.2068 33.5335L60.6225 34.0424L60.3211 34.3811L60.1518 34.5504L59.6051 35.1724L59.3605 35.4738L58.946 36.0581L58.7341 36.3963L58.509 36.6791L58.2971 37.0187L57.2988 39.0339L57.2797 39.1088L57.1671 39.4474L56.9968 39.7871L56.9792 39.8243L56.7336 40.2387L56.6205 40.5025L56.4086 40.8793L56.2393 41.1964L56.0279 41.5361L55.8165 41.9129L55.5909 42.2133L54.9689 43.2116L54.2158 44.0974L53.9711 44.436L53.7068 44.6812L53.4254 44.9259L53.0858 45.1892L52.4648 45.6041L52.1634 45.8155L51.7866 45.9849L51.4098 46.117L51.032 46.1924H50.2416L49.8081 46.117L49.4905 45.9056L49.189 45.6418L48.9776 45.2655L48.7662 44.9259L48.5969 44.0974V43.6829L48.6336 43.3061L48.728 42.9293L48.8039 42.4967L48.8983 42.1189L49.0104 41.8018L49.1425 41.425L49.859 39.9936L50.0704 39.654L50.316 39.3153L50.5274 38.9982L50.7907 38.6596L51.0026 38.3576L51.214 38.018L51.4587 37.7356L51.8732 37.0579L52.1365 36.775L52.3058 36.4364L52.4193 36.0596L52.4761 35.6833L52.344 35.1366L52.2118 34.6287L52.0988 34.2519L51.6657 33.5917L51.4215 33.2912L51.1201 33.0456L50.8377 32.7074L50.6674 32.4955L50.3669 32.1559L49.8198 31.6103L49.5374 31.3656L49.0667 30.819L48.7838 30.4803L48.4824 30.2347L48.2 29.9342L47.9881 29.6518L47.8942 29.3122V28.9736L47.9881 28.5591V27.4287L47.857 27.0523L47.6965 26.7054L47.4518 26.4607L47.1136 26.2346L46.7358 26.1597H46.359L45.9822 26.2346L45.6441 26.4039L45.3421 26.6682L45.0979 26.951L44.8865 27.2515L44.7162 27.6288L44.6409 28.0056V28.3824L44.679 28.7592L45.0559 29.8887L45.3945 30.5669L45.4703 30.8845V31.2614L45.394 31.694L45.2629 32.0708L45.188 32.4471L45.0935 32.7642L45.0177 33.141L44.8484 33.5178L44.7544 33.8946L44.6409 34.29L44.5469 34.6668L44.2083 35.42L44.0952 35.7371L43.9631 36.1139L43.7933 36.4907L43.6612 36.8675L43.5109 37.2057L43.3416 37.6206L43.2095 37.8839L42.8708 38.638L42.7578 39.0148L42.7196 39.1274L42.7005 39.146L42.5312 39.5228L41.9856 40.5965L41.9102 40.8084L41.6841 41.241L41.4722 41.5581L41.2276 41.8595L40.6061 42.8583L39.6831 44.1199L39.4717 44.4209L38.9256 44.968L38.3227 45.4568L37.6635 45.8904L37.3249 46.0597L36.9476 46.1733L36.5336 46.2672H36.1191L35.573 46.2114L34.9891 45.9658L34.443 45.5141L34.0094 44.968L33.7271 44.3269L33.5949 43.8375L33.5196 43.4607L33.4824 42.9146L33.4256 42.2363L33.3884 41.6907L33.4256 41.3511L33.5949 41.1064L33.9718 40.895L34.236 40.8568L34.6495 40.6875L35.0263 40.5182L35.366 40.3489L35.6483 40.1786L36.283 39.8017L36.6001 39.5903L36.9021 39.3789L37.5231 38.87L37.8245 38.6253L38.0697 38.4555L38.3716 38.2108L38.6158 37.9475L38.8605 37.6647L39.1248 37.3256L39.3308 36.9869L39.6146 36.5719L39.8779 36.1012L40.0472 35.7244L40.1603 35.4073L40.2919 35.0304L40.3858 34.4848L40.4622 33.9759V33.5991L40.424 33.2222L40.3296 32.8454L40.2547 32.5063L40.0854 32.1295L39.874 31.7913L39.6102 31.5085L39.365 31.2971L39.0822 31.0338L38.7807 30.8219L38.4039 30.6898L37.6508 30.5395H37.274L36.1108 30.5777L35.6777 30.6526L35.3009 30.747L35.0175 30.8219L34.6407 30.954L34.3026 31.1659L33.3038 31.7126L32.6255 32.1266L32.2487 32.428L31.9473 32.6394L31.7026 32.8513L31.1569 33.3969L30.9455 33.6793L30.4366 34.2827L30.0598 34.7721H29.9849L30.0598 34.5274L30.1542 34.1506L30.2673 33.7738L30.3994 33.4351L30.6441 32.3052L30.7762 31.9284L30.9455 31.5892L31.0209 31.2124L31.153 30.8356L31.247 30.4588L31.3223 30.1197L31.567 29.3661L31.6991 29.0274L31.8313 28.6506L31.9433 28.3335L32.0755 27.9567L32.2076 27.6185L32.4523 26.8639L32.6974 26.149L32.9607 25.3953L33.0743 25.0562L33.2054 24.6794L33.3375 24.2659L33.4129 24.0202L33.5822 23.5876L33.6762 23.2108L33.7892 22.8937L34.053 22.121L34.1655 21.8039L34.3774 21.4271L34.4719 21.1638L34.6412 20.787L34.7171 20.4102L34.604 20.1278L34.3026 19.8646L33.8876 19.6943L33.6243 19.6189L33.1726 19.4868L32.7958 19.4501H32.419L32.0417 19.4868L31.7412 19.751L31.4589 20.165L31.247 20.674L31.0777 21.0508L30.9074 21.3679L30.738 21.7447L30.6069 22.0833L30.4366 22.423L30.3235 22.7611L30.1542 23.1379L30.0231 23.4775L29.8909 23.891L29.8156 24.1367L29.6463 24.5512L29.5699 24.8517L29.4011 25.1913L29.2318 25.6063L29.0996 25.9831L28.9861 26.3212L28.8922 26.698L28.761 27.0748L28.6475 27.4145L28.5535 27.7913L28.4405 28.1676L28.346 28.5444L28.2712 28.8826L28.0074 29.6372L27.6903 30.6727L27.5581 31.0495L27.4265 31.3881L27.1813 32.1412L27.0874 32.4809L26.8427 33.6108L26.7106 33.9876L26.6543 34.2509L26.5794 34.1946L26.2398 34.2328L25.863 34.4021L25.4862 34.6135L25.241 34.7451L24.8642 34.9566L24.3934 35.1259L23.8478 35.3373L23.3961 35.5066L22.6043 35.718L22.341 35.8124L21.8884 35.9255L21.5116 36.0199H21.0408L20.7961 35.7562V35.3045L20.9277 34.9277L21.0036 34.5504L21.0408 34.2117L21.098 33.8349L21.1729 33.4204L21.2483 32.8743L21.3422 32.3654L21.4176 31.9886V31.5374L21.4744 31.2736V30.8209L21.5497 30.4823L21.5879 30.1055L21.6437 29.691V29.3142L21.5497 28.561V28.1842L21.5116 27.8074L21.4744 27.3929L21.4176 27.1297L21.3804 26.678L21.2483 26.169L21.1729 25.6229L21.0036 24.8688L20.8715 24.492L20.7584 24.1538L20.4198 23.4947L20.2505 23.1178L20.0802 22.7782L19.8688 22.4768L19.6569 22.1381L19.4455 21.8558L18.9365 21.2715L18.6542 21.0082L18.3527 20.7968L17.9387 20.5511L17.2228 20.1376L16.7706 19.8743L15.9984 19.6287L15.6216 19.4594L15.0931 19.3272L14.5851 19.2519L13.7385 19.2137L13.0793 19.1197H12.1192L11.6112 19.1579L11.1963 19.2519L10.6873 19.384L10.1417 19.4966L9.76486 19.6287L8.60115 20.2125L8.01734 20.5511L7.90381 20.6456C10.8809 13.6381 16.1301 7.8367 22.806 4.17595C29.4818 0.515196 37.1956 -0.791799 44.7048 0.465499C52.2139 1.7228 59.0812 5.47119 64.2005 11.1069C69.3198 16.7425 72.3931 23.9374 72.9251 31.5325L72.9589 31.5261L72.9584 31.5266Z" fill="#3AB795"/>
<path d="M73.0332 34.5621C72.9766 38.4392 72.2437 42.2766 70.8673 45.9017H70.7914L70.3774 45.6898L70.166 45.3511L70.1279 44.8045L70.166 44.1698L70.2791 43.4724L70.4102 42.8377L70.5047 42.3856L70.5805 41.952L70.7117 41.4626L70.882 40.7472L70.9573 40.3704L71.0885 39.8614L71.1266 39.6167L71.2015 39.2023L71.4653 38.4491L71.5411 38.1095L71.6723 37.7327L71.8416 36.9796L71.9551 36.6028L72.0491 36.2259L72.1621 35.8878L72.1254 35.51L71.9551 35.2653L71.6376 35.0539L70.9593 34.7158L70.583 34.6213L70.2062 34.5831L69.8293 34.6776L69.4149 34.889L69.1516 35.2658L69.038 35.6803L68.8687 36.132L68.6045 36.9786L68.4542 37.4303L68.3221 37.8071L68.1909 38.1467L68.0202 38.5235L67.9453 38.825L67.776 39.2018L67.267 40.293L67.0977 40.5387L66.8154 41.0844L66.5521 41.5375L65.9296 42.5539L65.7182 42.8368L65.2474 43.4715L65.036 43.7538L64.7913 44.0553L64.5799 44.3376L64.3353 44.6396L64.0338 44.8848L63.7886 45.148L63.2053 45.6379L62.5275 45.9765L62.1507 46.1087L61.6036 46.1458L61.0961 46.071L60.7184 45.9017L60.4737 45.6379L60.2623 45.3208L60.093 44.9821L59.9608 44.6053L59.9236 44.1718V43.008L60.0548 41.8776L60.1683 41.4631L60.4316 40.3332L60.6019 39.995L60.7521 39.6182L61.0154 38.8641L61.2273 38.5255L61.7362 37.5267L61.9476 37.188L62.159 36.8866L62.667 36.3023L62.8784 36.0199L63.1241 35.7185L63.4245 35.3798L63.5948 35.2105L63.9124 34.9282L64.2139 34.6825L64.4963 34.4564L64.8359 34.2445L65.1363 34.0331L65.5508 33.7879L65.9658 33.576L67.0238 33.1992L67.5695 33.0681L67.9844 33.0304L68.2859 32.9932H69.1144L69.5289 33.0681L69.962 33.1997L70.6588 33.37L70.9975 33.4449L71.3743 33.6142L71.7139 33.7835L72.0153 33.8966L72.3324 34.1231L72.7093 34.3346L73.0332 34.5621ZM7.5044 46.1047L7.03314 46.0108L6.48652 45.8977L6.10971 45.7651L5.7926 45.5963L5.49067 45.3844L4.90686 44.8769L4.66119 44.5941L4.43609 44.3298L4.19043 44.0122L3.85228 43.334L3.73874 42.9571L3.56942 42.4105L3.43729 41.7323L3.36242 41.1866L3.26797 40.8098L3.2298 40.433V39.6799L3.1931 39.2654V38.8886L3.26797 38.135V37.7958L3.30614 37.419L3.4001 37.0422L3.43729 36.6654L3.51266 36.2891L3.64478 35.7434L3.77691 35.2536L3.85228 34.8768L3.9844 34.5L4.15372 34.1603L4.32304 33.7468L4.4356 33.4826L4.66119 32.9364L4.87309 32.4466V32.0698L4.66119 31.599L4.32304 31.2609L3.9844 31.049L3.64478 30.9359L3.26797 30.8796L2.81629 31.0108L2.38271 31.2565L2.17082 31.5569L1.95941 31.8965L1.78912 32.2733L1.6198 32.6115L1.45048 32.9893L1.29877 33.3069L1.12994 33.6837L0.960622 34.154L0.697344 34.9834L0.545641 35.4542L0.414492 35.8692L0.320534 36.246L0.244193 36.5842L0.20749 36.961L0.113043 37.3755L0.0381704 38.1291V39.2928L0 39.6696V40.4785L0.113043 41.6094L0.20749 41.9862L0.244193 42.3631L0.320534 42.7399L0.583812 43.493L0.697344 43.8312L0.866664 44.208L0.998792 44.5256L1.20481 44.9024L1.45048 45.3727L1.75192 45.7876L1.99661 46.1263L2.25988 46.3714L2.54225 46.6352L2.8065 46.8804L3.12459 47.1809L3.9707 47.7652L4.34751 47.9766L4.68566 48.0896L5.06247 48.2217L5.55184 48.3529L6.61033 48.5648L7.0811 48.6029L7.57047 48.6969H8.62896C8.21594 47.8499 7.84072 46.985 7.5044 46.1047ZM43.8549 40.1526L43.9679 39.9833V39.9451L43.8554 40.1526H43.8549ZM43.7448 40.3258L43.6322 40.5715L43.7262 40.4012L43.8573 40.1565L43.7448 40.3258Z" fill="#3AB795"/>
<path d="M57.1727 39.4005L57.0024 39.7391V39.7773L57.1727 39.4377L57.2853 39.099L57.1727 39.4005ZM78.2497 39.1553L77.91 38.7222L77.4207 38.6474L77.0439 38.8588L76.1973 40.5358L75.9859 40.8745L75.8165 41.1916L75.1383 42.2085L75.0634 42.4536L74.8177 42.7923L74.5926 43.1319L74.1777 43.7162L73.6878 44.3L73.1798 44.8461L72.8784 45.1476L72.2946 45.5611L71.9178 45.773L71.4088 45.9433L70.8632 45.9051C70.5573 46.7529 70.2041 47.5829 69.8052 48.3911L69.9554 48.4102H70.3699L70.7467 48.3353L71.1235 48.2032L71.6325 47.9913L72.0842 47.7799L72.4605 47.568L72.7991 47.3429L73.9628 46.3441L74.2085 46.0999L74.4718 45.7979L74.9235 45.2141L75.1872 44.9127L75.4324 44.5951L75.6771 44.2936L75.8885 43.954L76.0578 43.6154L76.2692 43.2983L76.4958 42.9968L76.9103 42.3377L77.0796 41.999L77.2489 41.6222L77.4182 41.2826L77.6301 40.9811L77.8415 40.5676L77.9164 40.3557L78.1283 39.9412L78.2976 39.5644L78.2497 39.1553ZM74.7267 32.8264L74.4825 32.5249L74.1811 32.2802L73.8982 32.0688L73.5968 31.8056L72.9621 31.5232C73.0374 32.3145 73.0565 33.1048 73.0565 33.8961C73.0565 34.1222 73.0565 34.3297 73.0374 34.5553L73.0565 34.5739L73.3947 34.706L73.7343 34.6683L74.186 34.3669L74.6572 33.8589L74.8261 33.2751L74.7267 32.8264Z" fill="#3AB795"/>
</svg>
