<svg width="173" height="31" viewBox="0 0 173 31" fill="none" xmlns="http://www.w3.org/2000/svg">
<path d="M24.8577 2.8728L1.45537 2.8728C0.66947 2.8728 -5.74246e-08 3.52966 -1.27333e-07 4.32931L-3.54533e-07 6.92817C-4.24441e-07 7.72782 0.66947 8.38468 1.45537 8.38468L24.8577 8.38468C25.6727 8.38468 26.3131 7.72782 26.3422 6.92817L26.3422 4.35787C26.3422 3.52966 25.6727 2.8728 24.8577 2.8728ZM24.8577 17.2951L1.45537 17.2951C1.07697 17.2951 0.698576 17.4379 0.43661 17.7235C0.145536 18.009 -1.35322e-06 18.3517 -1.38817e-06 18.7516L-1.61537e-06 21.3504C-1.68528e-06 22.1501 0.669468 22.8069 1.45537 22.8069L24.8577 22.8069C25.6727 22.8069 26.3131 22.1786 26.3422 21.3504L26.3422 18.7516C26.3131 17.9234 25.6727 17.2951 24.8577 17.2951ZM14.641 24.4919L1.45537 24.4919C1.07697 24.4919 0.698576 24.6347 0.436609 24.9203C0.174642 25.2059 -1.98239e-06 25.5486 -2.01734e-06 25.9484L-2.24455e-06 28.5473C-2.31445e-06 29.3469 0.669468 30.0038 1.45537 30.0038L14.6119 30.0038C15.4269 30.0038 16.0673 29.3469 16.0673 28.5759L16.0673 25.977C16.0964 25.1202 15.456 24.4634 14.641 24.4919ZM26.3422 10.0697L1.45537 10.0697C1.07697 10.0697 0.698577 10.2124 0.43661 10.498C0.174644 10.7836 -7.2155e-07 11.1263 -7.56504e-07 11.5262L-9.83705e-07 14.125C-1.05361e-06 14.9247 0.669469 15.5815 1.45537 15.5815L26.3131 15.5815C27.1281 15.5815 27.7685 14.9247 27.7685 14.125L27.7685 11.5262C27.7976 10.7265 27.1281 10.0982 26.3422 10.0697Z" fill="#00C3F7"/>
<path d="M53.2221 8.77126C52.5023 8.02599 51.6674 7.4527 50.7172 7.0514C49.7671 6.6501 48.7594 6.44945 47.7229 6.44945C46.7152 6.42079 45.7362 6.6501 44.8149 7.08006C44.2103 7.36671 43.6632 7.76801 43.2026 8.2553L43.2026 7.79667C43.2026 7.56736 43.1162 7.33804 42.9722 7.16606C42.8283 6.99407 42.5979 6.87941 42.3388 6.87941L39.1429 6.87941C38.9126 6.87941 38.6822 6.96541 38.5383 7.16606C38.3655 7.33804 38.2792 7.56735 38.3079 7.79667L38.3079 29.2375C38.3079 29.4668 38.3943 29.6961 38.5383 29.8681C38.711 30.0401 38.9126 30.1261 39.1429 30.1261L42.4252 30.1261C42.6555 30.1261 42.8571 30.0401 43.0298 29.8681C43.2026 29.7248 43.3177 29.4955 43.2889 29.2375L43.2889 21.8995C43.7496 22.4154 44.3542 22.7881 45.0164 23.0174C45.8802 23.3327 46.7728 23.5047 47.6941 23.5047C48.7306 23.5047 49.7671 23.304 50.7172 22.9027C51.6674 22.5014 52.5311 21.9281 53.2509 21.1829C53.9995 20.4089 54.5754 19.4917 54.9784 18.4884C55.4391 17.3705 55.6407 16.1666 55.6119 14.9627C55.6407 13.7588 55.4103 12.5549 54.9784 11.4084C54.5466 10.4624 53.9707 9.54519 53.2221 8.77126ZM50.2854 16.5393C50.1126 16.9979 49.8535 17.3992 49.508 17.7718C48.8458 18.4884 47.8956 18.8897 46.9167 18.8897C46.4273 18.8897 45.9378 18.8037 45.4771 18.5744C45.0452 18.3738 44.6422 18.1158 44.2967 17.7718C43.9512 17.4278 43.692 16.9979 43.5193 16.5393C43.145 15.5647 43.145 14.5041 43.5193 13.5295C43.692 13.0709 43.9799 12.6696 44.2967 12.3256C44.6422 11.9816 45.0452 11.695 45.4771 11.4944C45.9378 11.2937 46.4273 11.179 46.9167 11.179C47.435 11.179 47.8956 11.265 48.3851 11.4944C48.817 11.695 49.2201 11.953 49.5368 12.297C49.8823 12.6409 50.1126 13.0422 50.3142 13.5009C50.6597 14.5041 50.6309 15.5647 50.2854 16.5393ZM73.2037 6.90808L69.9502 6.90808C69.7199 6.90808 69.4895 6.99407 69.3456 7.16606C69.1728 7.33804 69.0865 7.56736 69.0865 7.82534L69.0865 8.22663C68.6834 7.73934 68.1651 7.36671 67.6181 7.10873C66.7255 6.67877 65.7466 6.47812 64.7677 6.47812C62.6659 6.47812 60.6792 7.30938 59.182 8.77126C58.4047 9.54519 57.8 10.4624 57.397 11.4657C56.9363 12.5836 56.706 13.7875 56.7347 15.0201C56.706 16.224 56.9363 17.4278 57.397 18.5744C57.8288 19.5777 58.4047 20.4949 59.182 21.2689C60.6504 22.7594 62.6659 23.5907 64.7389 23.5907C65.7178 23.6193 66.6967 23.39 67.5893 22.96C68.1363 22.6734 68.6834 22.3008 69.0865 21.8421L69.0865 22.2721C69.0865 22.5014 69.1728 22.7307 69.3456 22.9027C69.5183 23.046 69.7199 23.1607 69.9502 23.1607L73.2037 23.1607C73.434 23.1607 73.6644 23.0747 73.8083 22.9027C73.9811 22.7307 74.0674 22.5014 74.0674 22.2721L74.0674 7.854C74.0674 7.62469 73.9811 7.39537 73.8371 7.22339C73.6644 7.02274 73.434 6.90808 73.2037 6.90808ZM68.7985 16.5393C68.6258 16.9979 68.3667 17.3992 68.0212 17.7718C67.6756 18.1158 67.3014 18.4024 66.8695 18.6031C65.9481 19.033 64.8828 19.033 63.9615 18.6031C63.5296 18.4024 63.1265 18.1158 62.781 17.7718C62.4355 17.4279 62.1764 16.9979 62.0037 16.5393C61.6582 15.5647 61.6582 14.5041 62.0037 13.5295C62.1764 13.0709 62.4355 12.6983 62.781 12.3256C63.1265 11.9816 63.5008 11.695 63.9615 11.4944C64.8828 11.0644 65.9481 11.0644 66.8407 11.4944C67.2726 11.695 67.6757 11.953 67.9924 12.297C68.3091 12.6409 68.5682 13.0422 68.7697 13.5009C69.1728 14.5041 69.1728 15.5647 68.7985 16.5393ZM105.623 14.5901C105.163 14.1888 104.616 13.8448 104.04 13.6155C103.435 13.3575 102.773 13.1855 102.14 13.0422L99.6634 12.5549C99.03 12.4403 98.5693 12.2683 98.339 12.0676C98.1375 11.9243 97.9935 11.695 97.9935 11.437C97.9935 11.1791 98.1374 10.9497 98.4542 10.7491C98.886 10.5198 99.3467 10.4051 99.8362 10.4338C100.47 10.4338 101.103 10.5771 101.679 10.8064C102.255 11.0644 102.802 11.3224 103.32 11.6663C104.04 12.125 104.673 12.039 105.105 11.523L106.286 10.1758C106.516 9.94649 106.631 9.65985 106.66 9.34455C106.631 9.00057 106.458 8.71393 106.199 8.48462C105.71 8.05466 104.904 7.59602 103.838 7.1374C102.773 6.67877 101.42 6.44946 99.8362 6.44946C98.8572 6.42079 97.9071 6.56411 96.9858 6.85075C96.2084 7.10873 95.4598 7.48137 94.7976 7.96866C94.193 8.42729 93.7323 9.00057 93.3868 9.68851C93.0701 10.3478 92.8973 11.0644 92.8973 11.781C92.8973 13.1282 93.3004 14.2175 94.1066 15.0201C94.9128 15.8227 95.9781 16.3673 97.3025 16.6253L99.8938 17.1985C100.441 17.2845 101.017 17.4565 101.535 17.7145C101.823 17.8292 101.996 18.1158 101.996 18.4311C101.996 18.7177 101.852 18.9757 101.535 19.205C101.218 19.4344 100.7 19.5777 100.009 19.5777C99.3179 19.5777 98.5981 19.4344 97.9647 19.119C97.3601 18.8324 96.813 18.4598 96.2948 18.0298C96.0644 17.8578 95.8341 17.7145 95.5462 17.5998C95.2583 17.5138 94.884 17.5998 94.5097 17.9151L93.0989 18.9757C92.6958 19.2624 92.4942 19.7497 92.6094 20.2083C92.6958 20.6956 93.0701 21.1542 93.7899 21.6988C95.575 22.9027 97.7056 23.5333 99.865 23.476C100.873 23.476 101.88 23.3613 102.831 23.0747C103.665 22.8167 104.443 22.4441 105.134 21.9281C105.767 21.4695 106.286 20.8676 106.631 20.151C106.977 19.463 107.149 18.7177 107.149 17.9438C107.178 17.2559 107.034 16.5679 106.746 15.9373C106.458 15.4787 106.084 14.9914 105.623 14.5901ZM119.847 18.5171C119.703 18.2591 119.443 18.0871 119.127 18.0298C118.839 18.0298 118.522 18.1158 118.292 18.2878C117.889 18.5458 117.428 18.6891 116.967 18.7177C116.823 18.7177 116.651 18.6891 116.507 18.6604C116.334 18.6318 116.19 18.5458 116.075 18.4311C115.931 18.2878 115.816 18.1158 115.729 17.9438C115.614 17.6572 115.557 17.3705 115.585 17.0839L115.585 11.2077L119.789 11.2077C120.048 11.2077 120.278 11.0931 120.451 10.9211C120.624 10.7491 120.739 10.5484 120.739 10.2905L120.739 7.79668C120.739 7.5387 120.653 7.30938 120.451 7.16606C120.278 6.99408 120.048 6.90809 119.818 6.90809L115.585 6.90809L115.585 2.8951C115.585 2.66578 115.499 2.4078 115.326 2.26448C115.153 2.12116 114.952 2.03517 114.722 2.0065L111.439 2.0065C111.209 2.0065 110.979 2.09249 110.806 2.26448C110.633 2.43646 110.518 2.66578 110.518 2.89509L110.518 6.90809L108.646 6.90809C108.416 6.90809 108.186 6.99408 108.013 7.19473C107.869 7.36671 107.783 7.59603 107.783 7.82534L107.783 10.3191C107.783 10.5484 107.869 10.7778 108.013 10.9497C108.157 11.1504 108.387 11.2364 108.646 11.2364L110.518 11.2364L110.518 18.2305C110.489 19.0617 110.662 19.893 111.007 20.6382C111.324 21.2689 111.727 21.8135 112.274 22.2721C112.793 22.7021 113.397 23.0174 114.059 23.1894C114.722 23.39 115.413 23.5047 116.104 23.5047C116.996 23.5047 117.917 23.3614 118.781 23.0747C119.587 22.8167 120.307 22.3581 120.883 21.7562C121.257 21.3835 121.286 20.7816 120.998 20.3516L119.847 18.5171ZM137.64 6.90809L134.386 6.90809C134.156 6.90809 133.955 6.99408 133.782 7.16606C133.609 7.33805 133.523 7.56736 133.523 7.82534L133.523 8.22664C133.12 7.73935 132.63 7.36672 132.054 7.10874C131.162 6.67877 130.183 6.47812 129.204 6.47812C127.102 6.47812 125.115 7.30939 123.618 8.77126C122.841 9.5452 122.236 10.4624 121.833 11.4657C121.372 12.5836 121.142 13.7875 121.171 14.9914C121.142 16.1953 121.372 17.3992 121.833 18.5458C122.236 19.549 122.87 20.4663 123.618 21.2402C125.087 22.7307 127.073 23.562 129.175 23.562C130.154 23.5907 131.133 23.3614 132.025 22.9601C132.601 22.6734 133.12 22.3008 133.523 21.8422L133.523 22.2721C133.523 22.5014 133.609 22.7307 133.782 22.8741C133.955 23.046 134.156 23.132 134.386 23.132L137.64 23.132C138.129 23.132 138.504 22.7594 138.504 22.2721L138.504 7.854C138.504 7.62469 138.417 7.39538 138.273 7.22339C138.129 7.02274 137.899 6.90809 137.64 6.90809ZM133.264 16.5393C133.091 16.9979 132.832 17.3992 132.486 17.7718C132.141 18.1158 131.766 18.4024 131.334 18.6031C130.874 18.8037 130.384 18.9184 129.866 18.9184C129.348 18.9184 128.887 18.8037 128.426 18.6031C127.995 18.4024 127.592 18.1158 127.246 17.7718C126.901 17.4279 126.641 16.9979 126.497 16.5393C126.152 15.5647 126.152 14.5041 126.497 13.5295C126.67 13.0709 126.929 12.6696 127.246 12.3256C127.592 11.9817 127.995 11.695 128.426 11.4944C128.887 11.2937 129.377 11.1791 129.866 11.1791C130.356 11.1791 130.845 11.2651 131.334 11.4944C131.766 11.695 132.141 11.953 132.486 12.297C132.832 12.6409 133.091 13.0422 133.264 13.5009C133.638 14.4754 133.638 15.5647 133.264 16.5393ZM155.491 18.2878L153.619 16.8546C153.274 16.5679 152.928 16.4819 152.64 16.5966C152.381 16.7113 152.151 16.8832 151.949 17.0839C151.546 17.5712 151.057 18.0011 150.539 18.3738C149.963 18.6891 149.358 18.8611 148.725 18.8037C147.976 18.8037 147.285 18.6031 146.681 18.1731C146.076 17.7432 145.615 17.1699 145.385 16.4533C145.212 15.966 145.126 15.4787 145.126 14.9914C145.126 14.4754 145.212 13.9882 145.385 13.4722C145.558 13.0136 145.788 12.6123 146.133 12.2683C146.479 11.9243 146.853 11.6377 147.285 11.4657C147.746 11.265 148.235 11.1504 148.754 11.1504C149.387 11.1217 150.02 11.2937 150.567 11.609C151.114 11.953 151.575 12.383 151.978 12.8989C152.151 13.0996 152.381 13.2715 152.64 13.3862C152.928 13.5009 153.274 13.4149 153.619 13.1282L155.491 11.7237C155.721 11.5804 155.894 11.351 155.98 11.0931C156.095 10.8064 156.067 10.4911 155.894 10.2331C155.174 9.11524 154.195 8.19798 153.015 7.5387C151.777 6.85076 150.308 6.47813 148.667 6.47813C147.516 6.47813 146.364 6.70744 145.27 7.1374C144.233 7.56736 143.312 8.16931 142.535 8.94325C141.757 9.71718 141.124 10.6344 140.692 11.6664C139.799 13.8162 139.799 16.224 140.692 18.3738C141.124 19.377 141.728 20.3229 142.535 21.0682C144.176 22.6734 146.364 23.5333 148.667 23.5333C150.308 23.5333 151.777 23.1607 153.015 22.4728C154.195 21.8135 155.203 20.8962 155.923 19.7497C156.067 19.4917 156.095 19.1764 156.009 18.9184C155.894 18.6891 155.721 18.4598 155.491 18.2878ZM172.824 21.6415L167.67 14.1315L172.075 8.3413C172.277 8.08332 172.363 7.71069 172.248 7.39538C172.161 7.16607 171.96 6.93675 171.413 6.93675L167.929 6.93675C167.727 6.93675 167.526 6.99408 167.353 7.08007C167.123 7.19473 166.95 7.36672 166.835 7.56736L163.322 12.4689L162.487 12.4689L162.487 0.888604C162.487 0.65929 162.401 0.429973 162.228 0.257987C162.055 0.0860017 161.854 1.08012e-05 161.624 1.07811e-05L158.37 1.04966e-05C158.14 1.04765e-05 157.909 0.0860014 157.737 0.257987C157.564 0.429972 157.477 0.630625 157.477 0.888603L157.477 22.2435C157.477 22.5014 157.564 22.7021 157.737 22.8741C157.909 23.046 158.14 23.132 158.37 23.132L161.624 23.132C161.854 23.132 162.084 23.046 162.228 22.8741C162.401 22.7021 162.487 22.4728 162.487 22.2435L162.487 16.5966L163.409 16.5966L167.238 22.4441C167.468 22.8741 167.9 23.132 168.361 23.132L172.017 23.132C172.564 23.132 172.795 22.8741 172.91 22.6447C173.054 22.3008 173.025 21.9281 172.824 21.6415ZM91.6881 6.90808L88.0315 6.90808C87.7436 6.90808 87.4845 6.99408 87.2829 7.19473C87.1102 7.36671 86.995 7.56736 86.9374 7.79667L84.231 17.7718L83.5688 17.7718L80.6896 7.79667C80.632 7.59602 80.5456 7.39538 80.4017 7.19473C80.2289 6.99408 79.9986 6.87942 79.7394 6.87942L76.0253 6.87942C75.5358 6.87942 75.2479 7.02274 75.104 7.36671C75.0176 7.65335 75.0176 7.96866 75.104 8.2553L79.7107 22.3008C79.797 22.5014 79.8834 22.7307 80.0562 22.8741C80.2289 23.046 80.488 23.132 80.7472 23.132L82.705 23.132L82.5323 23.5907L82.1004 24.8805C81.9564 25.2818 81.7261 25.6258 81.3806 25.8838C81.0639 26.1131 80.6896 26.2564 80.2865 26.2278C79.941 26.2278 79.6243 26.1418 79.3076 26.0271C78.9909 25.8838 78.7029 25.7118 78.4438 25.5112C78.2135 25.3392 77.9256 25.2532 77.6088 25.2532L77.5801 25.2532C77.2345 25.2819 76.9178 25.4538 76.7451 25.7691L75.5934 27.4603C75.1327 28.2056 75.3919 28.6642 75.6798 28.9222C76.3132 29.4955 77.033 29.9255 77.8392 30.1834C78.7317 30.4987 79.6531 30.6421 80.5744 30.6421C82.2443 30.6421 83.6263 30.1834 84.6916 29.2948C85.7857 28.3203 86.6207 27.059 87.0238 25.6258L92.3791 8.2553C92.4942 7.94 92.523 7.62469 92.4079 7.33805C92.3791 7.1374 92.1775 6.90808 91.6881 6.90808Z" fill="#011B33"/>
</svg>
