<svg width="27" height="27" viewBox="0 0 27 27" fill="none" xmlns="http://www.w3.org/2000/svg">
<path fill-rule="evenodd" clip-rule="evenodd" d="M13.25 2.5C7.31294 2.5 2.5 7.31294 2.5 13.25C2.5 15.8392 3.41536 18.2146 4.94013 20.0702C5.59589 19.0912 6.48683 18.2457 7.54546 17.584C9.20437 16.5472 11.2092 16 13.2499 16C15.2905 16 17.2953 16.5472 18.9542 17.584C20.0129 18.2457 20.9039 19.0913 21.5597 20.0704C23.0846 18.2147 24 15.8393 24 13.25C24 7.31294 19.1871 2.5 13.25 2.5ZM22.3003 22.9276C24.8848 20.5096 26.5 17.0684 26.5 13.25C26.5 5.93223 20.5678 0 13.25 0C5.93223 0 0 5.93223 0 13.25C0 17.0681 1.6149 20.5089 4.19892 22.9269C4.31942 23.1142 4.49039 23.2705 4.7003 23.3729C7.0079 25.3238 9.99159 26.5 13.25 26.5C16.5086 26.5 19.4924 25.3237 21.8001 23.3725C22.0094 23.2703 22.18 23.1144 22.3003 22.9276ZM19.7131 21.8409C19.2665 21.0287 18.5628 20.2875 17.6292 19.704C16.3953 18.9328 14.8556 18.5 13.2499 18.5C11.6441 18.5 10.1044 18.9328 8.87046 19.704C7.93694 20.2875 7.23333 21.0286 6.78665 21.8407C8.5856 23.1964 10.8239 24 13.25 24C15.676 24 17.9142 23.1964 19.7131 21.8409ZM13.25 7.5C11.7312 7.5 10.5 8.73122 10.5 10.25C10.5 11.7688 11.7312 13 13.25 13C14.7688 13 16 11.7688 16 10.25C16 8.73122 14.7688 7.5 13.25 7.5ZM8 10.25C8 7.3505 10.3505 5 13.25 5C16.1495 5 18.5 7.3505 18.5 10.25C18.5 13.1495 16.1495 15.5 13.25 15.5C10.3505 15.5 8 13.1495 8 10.25Z" fill="#4FB518"/>
</svg>
