<svg width="20" height="14" viewBox="0 0 20 14" fill="none" xmlns="http://www.w3.org/2000/svg">
<path fill-rule="evenodd" clip-rule="evenodd" d="M2.35413 6.57005C3.03435 5.74418 4.11029 4.58138 5.42941 3.63233C6.75643 2.6776 8.24447 2 9.77027 2C11.2961 2 12.7841 2.6776 14.1111 3.63233C15.4303 4.58138 16.5062 5.74418 17.1864 6.57005C17.2862 6.69118 17.3607 6.78179 17.4224 6.86149C17.4713 6.92458 17.5024 6.96852 17.5227 7C17.5024 7.03147 17.4713 7.07541 17.4224 7.13851C17.3607 7.21821 17.2862 7.30882 17.1864 7.42995C16.5062 8.25582 15.4303 9.41862 14.1111 10.3677C12.7841 11.3224 11.2961 12 9.77027 12C8.24447 12 6.75643 11.3224 5.42941 10.3677C4.11029 9.41862 3.03435 8.25582 2.35413 7.42995C2.25436 7.30882 2.17984 7.21821 2.11811 7.13851C2.06925 7.07541 2.03813 7.03148 2.01782 7C2.03813 6.96852 2.06925 6.92459 2.11811 6.86149C2.17984 6.78179 2.25436 6.69118 2.35413 6.57005ZM9.77027 0C7.66034 0 5.76442 0.927471 4.26138 2.00884C2.75044 3.0959 1.55022 4.40024 0.810358 5.29852C0.786776 5.32716 0.762196 5.3566 0.7369 5.3869L0.736869 5.38694C0.423445 5.76236 0 6.26957 0 7C0 7.73043 0.423444 8.23764 0.736868 8.61306L0.737045 8.61328C0.76229 8.64351 0.786821 8.6729 0.810357 8.70147C1.55022 9.59975 2.75044 10.9041 4.26138 11.9912C5.76442 13.0725 7.66034 14 9.77027 14C11.8802 14 13.7761 13.0725 15.2792 11.9912C16.7901 10.9041 17.9903 9.59976 18.7302 8.70148C18.7538 8.67283 18.7784 8.64338 18.8037 8.61306C19.1171 8.23764 19.5406 7.73043 19.5406 7C19.5406 6.26957 19.1171 5.76236 18.8037 5.38694L18.8036 5.38689C18.7783 5.35659 18.7538 5.32715 18.7302 5.29853C17.9903 4.40025 16.7901 3.0959 15.2792 2.00885C13.7761 0.927472 11.8802 0 9.77027 0ZM11.7703 7C11.7703 8.10457 10.8748 9 9.77026 9C8.66569 9 7.77026 8.10457 7.77026 7C7.77026 5.89543 8.66569 5 9.77026 5C10.8748 5 11.7703 5.89543 11.7703 7ZM13.7703 7C13.7703 9.20914 11.9794 11 9.77026 11C7.56112 11 5.77026 9.20914 5.77026 7C5.77026 4.79086 7.56112 3 9.77026 3C11.9794 3 13.7703 4.79086 13.7703 7Z" fill="#C7C9C7"/>
</svg>
