<svg width="25" height="17" viewBox="0 0 25 17" fill="none" xmlns="http://www.w3.org/2000/svg">
<path fill-rule="evenodd" clip-rule="evenodd" d="M21.4365 8.04341e-06L21.5 1.61496e-05L21.5635 8.04341e-06C22.0582 -8.6394e-05 22.539 -0.00017813 22.9356 0.0516155C23.3827 0.110005 23.8928 0.252263 24.3166 0.663906C24.7403 1.07555 24.8868 1.57113 24.9469 2.00542C25.0002 2.39065 25.0001 2.85771 25 3.3383V3.33832V3.33834L25 3.40001V13.6L25 13.6617V13.6617V13.6617C25.0001 14.1423 25.0002 14.6094 24.9469 14.9946C24.8868 15.4289 24.7403 15.9244 24.3166 16.3361C23.8928 16.7477 23.3827 16.89 22.9356 16.9484C22.5391 17.0002 22.0583 17.0001 21.5636 17H21.5636H21.5635L21.5 17L21.4365 17H21.4364H21.4364C20.9417 17.0001 20.4609 17.0002 20.0644 16.9484C19.6173 16.89 19.1072 16.7477 18.6834 16.3361C18.2597 15.9244 18.1132 15.4289 18.0531 14.9946C17.9998 14.6093 17.9999 14.1423 18 13.6617L18 13.6V3.40001L18 3.33835C17.9999 2.85774 17.9998 2.39066 18.0531 2.00542C18.1132 1.57113 18.2597 1.07555 18.6834 0.663906C19.1072 0.252263 19.6173 0.110005 20.0644 0.0516155C20.461 -0.00017813 20.9418 -8.6394e-05 21.4365 8.04341e-06ZM20.3668 2.2992L20.3656 2.30745C20.3358 2.523 20.3333 2.83371 20.3333 3.40001V13.6C20.3333 14.1663 20.3358 14.477 20.3656 14.6925L20.3668 14.7008L20.3753 14.7019C20.5972 14.7309 20.917 14.7333 21.5 14.7333C22.083 14.7333 22.4028 14.7309 22.6247 14.7019L22.6332 14.7008L22.6344 14.6925C22.6642 14.477 22.6667 14.1663 22.6667 13.6V3.40001C22.6667 2.83371 22.6642 2.523 22.6344 2.30745L22.6332 2.2992L22.6247 2.29807C22.4028 2.26909 22.083 2.26668 21.5 2.26668C20.917 2.26668 20.5972 2.26909 20.3753 2.29807L20.3668 2.2992ZM12.4365 7.00001L12.5 7.00002L12.5635 7.00001C13.0582 6.99992 13.539 6.99983 13.9356 7.0506C14.3827 7.10785 14.8928 7.24732 15.3166 7.65089C15.7403 8.05446 15.8868 8.54032 15.9469 8.9661C16.0002 9.34377 16.0001 9.80167 16 10.2728V10.2729L16 10.3333V13.6667L16 13.7271V13.7272C16.0001 14.1983 16.0002 14.6562 15.9469 15.0339C15.8868 15.4597 15.7403 15.9455 15.3166 16.3491C14.8928 16.7527 14.3827 16.8922 13.9356 16.9494C13.539 17.0002 13.0582 17.0001 12.5635 17H12.5635H12.5635L12.5 17L12.4365 17H12.4365H12.4365C11.9418 17.0001 11.461 17.0002 11.0644 16.9494C10.6173 16.8922 10.1072 16.7527 9.68343 16.3491C9.25968 15.9455 9.11324 15.4597 9.05313 15.0339C8.99982 14.6562 8.99991 14.1983 9.00001 13.7271L9.00002 13.6667V10.3333L9.00001 10.2729C8.99991 9.8017 8.99982 9.34378 9.05313 8.9661C9.11324 8.54032 9.25968 8.05446 9.68343 7.65089C10.1072 7.24732 10.6173 7.10785 11.0644 7.0506C11.461 6.99983 11.9418 6.99992 12.4365 7.00001ZM11.3668 9.25411L11.3656 9.2622C11.3358 9.47353 11.3333 9.77815 11.3333 10.3333V13.6667C11.3333 14.2219 11.3358 14.5265 11.3656 14.7378L11.3668 14.7459L11.3753 14.747C11.5972 14.7754 11.917 14.7778 12.5 14.7778C13.083 14.7778 13.4028 14.7754 13.6247 14.747L13.6332 14.7459L13.6344 14.7378C13.6642 14.5265 13.6667 14.2219 13.6667 13.6667V10.3333C13.6667 9.77815 13.6642 9.47353 13.6344 9.2622L13.6332 9.25411L13.6247 9.253C13.4028 9.22459 13.083 9.22223 12.5 9.22223C11.917 9.22223 11.5972 9.22459 11.3753 9.253L11.3668 9.25411ZM3.5 2.00002L3.43652 2.00001C2.94178 1.99991 2.46097 1.99982 2.0644 2.05255C1.61733 2.112 1.10718 2.25683 0.683431 2.67592C0.259681 3.09502 0.11324 3.59956 0.0531334 4.04172C-0.000183368 4.43393 -8.89348e-05 4.90946 8.27996e-06 5.39877L1.66246e-05 5.46155V13.5385L8.27996e-06 13.6012C-8.89348e-05 14.0905 -0.000183368 14.5661 0.0531334 14.9583C0.11324 15.4004 0.259681 15.905 0.683431 16.3241C1.10718 16.7432 1.61733 16.888 2.0644 16.9475C2.46096 17.0002 2.94176 17.0001 3.4365 17H3.43652L3.5 17L3.56348 17H3.5635C4.05824 17.0001 4.53904 17.0002 4.9356 16.9475C5.38267 16.888 5.89282 16.7432 6.31657 16.3241C6.74032 15.905 6.88676 15.4004 6.94687 14.9583C7.00018 14.5661 7.00009 14.0905 6.99999 13.6012V13.6012L6.99998 13.5385V5.46155L6.99999 5.39877V5.39876C7.00009 4.90945 7.00018 4.43393 6.94687 4.04172C6.88676 3.59956 6.74032 3.09502 6.31657 2.67592C5.89282 2.25683 5.38267 2.112 4.9356 2.05255C4.53903 1.99982 4.05822 1.99991 3.56348 2.00001L3.5 2.00002ZM2.36565 4.34921L2.36681 4.34081L2.37531 4.33966C2.5972 4.31015 2.91705 4.3077 3.5 4.3077C4.08295 4.3077 4.4028 4.31015 4.62469 4.33966L4.63319 4.34081L4.63435 4.34921C4.66418 4.56867 4.66666 4.885 4.66666 5.46155V13.5385C4.66666 14.115 4.66418 14.4313 4.63435 14.6508L4.63319 14.6592L4.62469 14.6603C4.4028 14.6898 4.08295 14.6923 3.5 14.6923C2.91705 14.6923 2.5972 14.6898 2.37531 14.6603L2.36681 14.6592L2.36565 14.6508C2.33582 14.4313 2.33334 14.115 2.33334 13.5385V5.46155C2.33334 4.885 2.33582 4.56867 2.36565 4.34921Z" fill="#8F928E"/>
</svg>
