<svg width="25" height="19" viewBox="0 0 25 19" fill="none" xmlns="http://www.w3.org/2000/svg">
<path fill-rule="evenodd" clip-rule="evenodd" d="M6.78572 6.547e-06L6.69637 3.31132e-06C5.49329 -6.43144e-05 4.45668 -0.0001224 3.62657 0.111483C2.73694 0.23109 1.88418 0.500816 1.1925 1.1925C0.500816 1.88418 0.23109 2.73694 0.111483 3.62657C-0.0001224 4.45668 -6.43144e-05 5.49329 3.31132e-06 6.69638L6.547e-06 6.78572L3.31132e-06 12.3036C-6.43144e-05 13.5067 -0.0001224 14.5433 0.111483 15.3734C0.23109 16.2631 0.500816 17.1158 1.1925 17.8075C1.88418 18.4992 2.73694 18.7689 3.62657 18.8885C4.45668 19.0001 5.49328 19.0001 6.69637 19H17.7322C18.9353 19.0001 19.9719 19.0001 20.802 18.8885C21.6916 18.7689 22.5444 18.4992 23.2361 17.8075C23.9278 17.1158 24.1975 16.2631 24.3171 15.3734C24.4287 14.5433 24.4286 13.5067 24.4286 12.3036V6.69641C24.4286 5.49331 24.4287 4.45669 24.3171 3.62657C24.1975 2.73694 23.9278 1.88418 23.2361 1.1925C22.5444 0.500816 21.6916 0.23109 20.802 0.111483C19.9719 -0.0001224 18.9353 -6.43144e-05 17.7322 3.31132e-06L6.78572 6.547e-06ZM3.11179 3.11179C3.2151 3.00848 3.3996 2.8807 3.98824 2.80156C4.61593 2.71717 5.46782 2.71429 6.78572 2.71429H17.6429C18.9607 2.71429 19.8126 2.71717 20.4403 2.80156C21.029 2.8807 21.2135 3.00848 21.3168 3.11179C21.4201 3.2151 21.5479 3.3996 21.627 3.98825C21.6518 4.1727 21.6696 4.37651 21.6823 4.60581L12.821 9.03645C12.4389 9.22748 11.9892 9.22748 11.6072 9.03645L2.74628 4.60601C2.75899 4.37662 2.77676 4.17275 2.80156 3.98825C2.8807 3.3996 3.00848 3.2151 3.11179 3.11179ZM2.71429 7.62468V12.2143C2.71429 13.5322 2.71717 14.3841 2.80156 15.0118C2.8807 15.6004 3.00848 15.7849 3.11179 15.8882C3.2151 15.9915 3.3996 16.1193 3.98824 16.1984C4.61593 16.2828 5.46782 16.2857 6.78572 16.2857H17.6429C18.9607 16.2857 19.8126 16.2828 20.4403 16.1984C21.029 16.1193 21.2135 15.9915 21.3168 15.8882C21.4201 15.7849 21.5479 15.6004 21.627 15.0118C21.7114 14.3841 21.7143 13.5322 21.7143 12.2143V7.62448L14.0349 11.4642C12.8887 12.0373 11.5395 12.0373 10.3933 11.4642L2.71429 7.62468Z" fill="#8F928E"/>
</svg>
