<svg width="157" height="50" viewBox="0 0 157 50" fill="none" xmlns="http://www.w3.org/2000/svg">
<path d="M87.4912 21.9646C81.5578 21.9646 78.1481 24.5544 78.1481 29.0585C78.1481 33.516 81.5578 36.0959 87.4912 36.0959C93.4307 36.0959 96.8234 33.516 96.8234 29.0585C96.8234 24.5544 93.4305 21.9648 87.4912 21.9648V21.9646ZM87.4912 32.8265C84.2468 32.8265 82.6032 31.5681 82.6032 29.0585C82.6032 26.5196 84.2468 25.2475 87.4912 25.2475C90.7343 25.2475 92.3902 26.5194 92.3902 29.0585C92.3902 31.5681 90.7343 32.8265 87.4912 32.8265ZM98.0389 22.3118V25.3262H103.665V34.682C103.665 35.5762 105.007 35.901 106.141 35.901C107.28 35.901 108.625 35.5907 108.625 34.682V25.3262H114.241V22.3118H98.0389ZM144.174 32.6394C142.799 32.6394 141.853 32.4027 141.335 31.9743C140.665 31.3956 140.591 30.5423 140.572 29.8886V23.286C140.572 22.4069 139.298 22.1174 138.203 22.1174C137.102 22.1174 135.818 22.4069 135.818 23.2699V29.6667C135.818 32.111 136.588 33.8226 138.132 34.7561C140.036 35.8752 143.492 35.8334 146.816 35.7889H150.962L150.973 35.1834V32.6394H144.174ZM67.3353 31.6382C67.3353 34.0234 69.3143 35.6476 72.6742 35.9245V21.551H80.2135V18.2263H60.5657V21.551H67.3353V31.6382ZM133.897 35.7929L133.778 35.2497C132.673 29.7236 126.473 23.4092 125.186 22.4757C124.771 22.1889 124.329 22.115 123.755 22.1015C123.169 22.115 122.712 22.1889 122.301 22.4757C121.021 23.409 114.813 29.7236 113.724 35.2499L113.601 35.7929H117.992L118.071 35.4036C118.25 34.6181 118.534 33.7708 118.917 32.8966H128.569C128.948 33.7708 129.242 34.6181 129.405 35.4036L129.499 35.7929H133.897ZM120.469 30.0597C121.419 28.5983 122.521 27.2443 123.755 26.0209C124.985 27.2521 126.093 28.6372 127.022 30.0597H120.469Z" fill="#E4032E"/>
<path d="M48.039 26.4665C48.0084 26.3701 47.9743 26.2748 47.9369 26.1808C44.69 29.9352 36.7193 32.3647 29.5497 31.8228C25.3243 31.5052 17.5018 29.2925 13.5559 26.8445C17.723 30.8884 22.605 33.9681 28.1297 35.6277C34.6941 37.6015 41.6995 37.4686 45.6465 35.3853C48.5423 33.4063 49.1962 29.8786 48.039 26.4665Z" fill="#F49600"/>
<path d="M39.009 2.8605C51.9369 10.5896 44.2433 34.916 33.9557 42.7302C24.3818 50 14.2022 46.6497 11.9946 39.9485C13.9249 42.8508 17.7516 43.9073 21.1517 42.7524C30.6008 38.9154 35.4657 21.5793 36.0951 15.5556C36.5169 10.374 35.8473 6.89558 34.0725 4.70011C32.0376 2.52168 28.9194 1.46652 24.3573 2.91712C27.4972 0.306536 34.2146 7.27177e-06 39.009 2.8605Z" fill="#164194"/>
<path d="M46.2433 35.0392C46.2963 35.0093 46.3478 34.9768 46.3977 34.9419C46.4014 34.9357 46.4158 34.9297 46.4243 34.9235C46.687 34.7475 46.952 34.5491 47.1987 34.3226C47.307 34.218 47.4236 34.1096 47.5343 33.9865C52.5645 28.8184 53.6317 14.4449 41.2448 7.63693C36.8334 5.21345 26.5737 1.82106 16.3467 7.05306C12.966 8.77944 9.47727 12.3764 7.59546 17.261C8.98493 14.9436 11.3835 13.3701 16.1109 12.6916C20.8297 12.0944 27.331 12.8369 33.6911 15.1099C37.7936 16.6382 41.1144 18.5331 43.7052 20.6768C45.847 22.5361 47.223 24.2994 47.9365 26.1835C47.9742 26.2794 48.007 26.3717 48.0387 26.4666C49.1958 29.8786 48.5419 33.4066 45.6488 35.3853C45.6466 35.3902 45.6512 35.3815 45.6488 35.3853C45.7881 35.3125 45.9252 35.2353 46.0597 35.1537C46.0789 35.1423 46.0975 35.13 46.1156 35.1168C46.1533 35.0958 46.197 35.0726 46.2433 35.0394" fill="#E4032E"/>
<path d="M9.19601 25.5308C9.43552 25.9125 9.96913 26.5614 10.3204 26.9739C12.8079 21.0585 26.4151 17.214 30.4281 17.2585C21.4131 14.3193 12.5745 15.723 9.01894 18.8444C7.72793 20.2999 7.32795 22.4843 9.19623 25.5308" fill="#F49600"/>
<path d="M35.7308 38.9512C28.4906 38.5412 17.9344 35.7104 10.4569 27.1302C10.4143 27.0761 10.3693 27.0239 10.322 26.9739C9.96963 26.5614 9.43602 25.9149 9.19542 25.5308C7.32692 22.4843 7.72931 20.2999 9.01901 18.8433C8.7867 19.0587 8.49741 19.3259 8.17187 19.7532C6.25709 22.2603 6.0274 26.3298 7.33304 30.6409C10.1847 40.0051 22.641 45.6374 32.7586 44.0884C39.2169 43.102 43.2648 39.4203 44.9486 37.9144C41.2909 38.9685 38.5861 39.1111 35.7306 38.9512" fill="#4A96D2"/>
</svg>
