<svg width="24" height="33" viewBox="0 0 24 33" fill="none" xmlns="http://www.w3.org/2000/svg">
<path fill-rule="evenodd" clip-rule="evenodd" d="M12.5946 0.0524344C12.2014 -0.0174781 11.7986 -0.0174781 11.4054 0.0524344C10.4063 0.230087 9.75811 0.888248 9.31963 1.4494C8.89687 1.99043 8.456 2.72867 7.97122 3.54045L7.97121 3.54047L7.92137 3.62391L5.12995 8.29707C3.10733 11.6832 1.52915 15.3083 0.433228 19.0856C-1.58988 26.0587 3.7269 33 11.0911 33H12.9089C20.2731 33 25.5899 26.0587 23.5668 19.0856C22.4708 15.3083 20.8927 11.6832 18.8701 8.29707L16.0786 3.62391L16.0288 3.54044C15.544 2.72867 15.1031 1.99043 14.6804 1.4494C14.2419 0.888248 13.5937 0.230087 12.5946 0.0524344ZM10.8057 5.29477C11.357 4.37196 11.6922 3.81686 11.9717 3.4591C11.9815 3.44659 11.9909 3.4347 12 3.42341C12.0091 3.4347 12.0185 3.44659 12.0283 3.4591C12.3078 3.81686 12.643 4.37196 13.1943 5.29477L15.9857 9.96793C17.8648 13.1138 19.331 16.4817 20.3491 19.991C21.7615 24.8589 18.0498 29.7046 12.9089 29.7046H11.0911C5.95018 29.7046 2.23853 24.8589 3.65087 19.991C4.66903 16.4817 6.13522 13.1138 8.01432 9.96793L10.8057 5.29477ZM10.0002 24.0645C9.78207 23.2986 8.94537 22.8441 8.13135 23.0493C7.31733 23.2545 6.83426 24.0417 7.05237 24.8076C7.31319 25.7235 7.8879 26.5328 8.68737 27.1099C9.48684 27.6871 10.4664 28 11.4741 28C12.3168 28 13 27.3572 13 26.5643C13 25.7714 12.3168 25.1286 11.4741 25.1286C11.1382 25.1286 10.8117 25.0243 10.5452 24.8319C10.2787 24.6395 10.0871 24.3698 10.0002 24.0645Z" fill="#E98918"/>
</svg>
