<svg width="46" height="39" viewBox="0 0 46 39" fill="none" xmlns="http://www.w3.org/2000/svg">
<path fill-rule="evenodd" clip-rule="evenodd" d="M10.5002 10.5C10.5002 6.71363 13.7762 3.5 18.0002 3.5C22.2243 3.5 25.5002 6.71363 25.5002 10.5C25.5002 14.2864 22.2243 17.5 18.0002 17.5C13.7762 17.5 10.5002 14.2864 10.5002 10.5ZM18.0002 0.5C12.2832 0.5 7.50024 4.89753 7.50024 10.5C7.50024 16.1025 12.2832 20.5 18.0002 20.5C23.7173 20.5 28.5002 16.1025 28.5002 10.5C28.5002 4.89753 23.7173 0.5 18.0002 0.5ZM18.0003 25.5C14.0151 25.5 10.1112 26.5038 6.89218 28.3927C3.6733 30.2814 1.26991 32.9828 0.163897 36.1393C-0.110049 36.9211 0.301665 37.777 1.08349 38.051C1.86531 38.3249 2.72118 37.9132 2.99512 37.1314C3.82626 34.7594 5.69141 32.5756 8.41044 30.9801C11.1293 29.3847 14.5009 28.5 18.0003 28.5C21.4996 28.5 24.8712 29.3847 27.5901 30.9801C30.3091 32.5756 32.1742 34.7594 33.0054 37.1314C33.2793 37.9132 34.1352 38.3249 34.917 38.051C35.6988 37.777 36.1105 36.9212 35.8366 36.1393C34.7306 32.9829 32.3272 30.2815 29.1083 28.3927C25.8893 26.5038 21.9854 25.5 18.0003 25.5ZM37.0002 11.5C37.8287 11.5 38.5002 12.1716 38.5002 13V18.5H44.0002C44.8287 18.5 45.5002 19.1716 45.5002 20C45.5002 20.8284 44.8287 21.5 44.0002 21.5H38.5002V27C38.5002 27.8284 37.8287 28.5 37.0002 28.5C36.1718 28.5 35.5002 27.8284 35.5002 27V21.5H30.0002C29.1718 21.5 28.5002 20.8284 28.5002 20C28.5002 19.1716 29.1718 18.5 30.0002 18.5H35.5002V13C35.5002 12.1716 36.1718 11.5 37.0002 11.5Z" fill="#4FB518"/>
</svg>
