<svg width="40" height="36" viewBox="0 0 40 36" fill="none" xmlns="http://www.w3.org/2000/svg">
<path fill-rule="evenodd" clip-rule="evenodd" d="M15.3874 0.500001H24.6126H24.6127C27.699 0.499963 30.1699 0.499933 32.1096 0.764852C34.1184 1.03922 35.7793 1.62263 37.0919 2.95614C38.4014 4.28637 38.9713 5.96397 39.2399 7.99334C39.5001 9.95905 39.5 12.4651 39.5 15.6044V15.6045V19.7733C39.5001 19.8263 39.5001 19.8789 39.5 19.931V19.9311L39.5 20V24L39.5 24.0689V24.0689C39.5002 24.4791 39.5004 24.9227 39.45 25.2971C39.4487 25.3068 39.4474 25.3164 39.446 25.3262C39.4088 26.3137 39.346 27.2051 39.2399 28.0067C38.9713 30.036 38.4014 31.7136 37.0919 33.0439C35.7793 34.3774 34.1184 34.9608 32.1096 35.2352C30.17 35.5001 27.6991 35.5 24.6129 35.5H24.6127H15.3873H15.3872C12.3009 35.5 9.83005 35.5001 7.89043 35.2352C5.88163 34.9608 4.22073 34.3774 2.90805 33.0439C1.59861 31.7136 1.02867 30.036 0.760097 28.0067C0.499938 26.0409 0.499966 23.5348 0.500001 20.3955V15.6045C0.499966 12.4652 0.499938 9.95909 0.760097 7.99334C1.02867 5.96397 1.5986 4.28637 2.90805 2.95614C4.22073 1.62263 5.88163 1.03922 7.89043 0.764852C9.83009 0.499933 12.301 0.499963 15.3873 0.500001H15.3874ZM36.5 19.8885V20.2857C36.5 21.9118 36.4992 23.2993 36.4702 24.4981C36.3376 24.4999 36.1852 24.5 36 24.5H28C27.8019 24.5 27.6412 24.4999 27.5023 24.4977C27.5001 24.3587 27.5 24.1981 27.5 24V20C27.5 19.8018 27.5001 19.6412 27.5023 19.5023C27.6412 19.5 27.8019 19.5 28 19.5H36C36.1982 19.5 36.3588 19.5 36.4977 19.5023C36.4995 19.6142 36.4999 19.7401 36.5 19.8885ZM36.5 16.5018C36.3551 16.4998 36.21 16.4999 36.0689 16.4999L36 16.5H28L27.9311 16.4999C27.5209 16.4998 27.0773 16.4996 26.7029 16.55C26.2642 16.6089 25.7039 16.7606 25.2323 17.2322C24.7607 17.7038 24.609 18.2642 24.55 18.7028C24.4997 19.0773 24.4998 19.5208 24.5 19.9311L24.5 20V24L24.5 24.0688C24.4998 24.4791 24.4997 24.9227 24.55 25.2971C24.609 25.7358 24.7607 26.2961 25.2323 26.7677C25.7039 27.2393 26.2642 27.391 26.7029 27.45C27.0773 27.5003 27.5209 27.5001 27.9311 27.5L28 27.5H36L36.0689 27.5C36.1386 27.5 36.2093 27.5 36.2804 27.4998C36.2757 27.5378 36.2708 27.5756 36.2658 27.6131C36.0402 29.3183 35.6216 30.2611 34.954 30.9393C34.2896 31.6142 33.371 32.035 31.7036 32.2628C29.9906 32.4967 27.725 32.5 24.5 32.5H15.5C12.275 32.5 10.0094 32.4967 8.2964 32.2628C6.62897 32.035 5.71036 31.6142 5.04601 30.9393C4.37843 30.2611 3.95984 29.3183 3.73416 27.6131C3.50309 25.8671 3.5 23.56 3.5 20.2857V15.7143C3.5 12.44 3.50309 10.1329 3.73416 8.38694C3.95984 6.68172 4.37843 5.73887 5.04601 5.06069C5.71036 4.38579 6.62897 3.965 8.2964 3.73726C10.0094 3.50329 12.275 3.5 15.5 3.5H24.5C27.725 3.5 29.9906 3.50329 31.7036 3.73726C33.371 3.965 34.2896 4.38579 34.954 5.06069C35.6216 5.73887 36.0402 6.68172 36.2658 8.38694C36.4969 10.1329 36.5 12.44 36.5 15.7143V16.5018ZM8.5 10C8.5 9.17157 9.17157 8.5 10 8.5H16C16.8284 8.5 17.5 9.17157 17.5 10C17.5 10.8284 16.8284 11.5 16 11.5H10C9.17157 11.5 8.5 10.8284 8.5 10Z" fill="#4FB518"/>
</svg>
