<svg width="23" height="21" viewBox="0 0 23 21" fill="none" xmlns="http://www.w3.org/2000/svg">
<path fill-rule="evenodd" clip-rule="evenodd" d="M8.82895 1.15889e-06H14.1711H14.1711C15.9296 -3.62844e-05 17.367 -6.68897e-05 18.5019 0.154936C19.6897 0.317164 20.7158 0.668208 21.5328 1.49809C22.3472 2.32547 22.6894 3.3605 22.848 4.55845C23.0001 5.70772 23 7.1648 23 8.9541V8.95412V8.95415V11.7459V11.7459V11.7459C23 11.9488 23 12.1475 22.9998 12.3419C23 12.423 23 12.5049 23 12.5872V12.5872L23 12.6498L23 12.7124V12.7124C23 12.9374 23.0001 13.1595 22.9949 13.3719C22.9843 14.4417 22.9511 15.3624 22.848 16.1416C22.6894 17.3395 22.3472 18.3745 21.5328 19.2019C20.7158 20.0318 19.6897 20.3828 18.5019 20.5451C17.367 20.7001 15.9296 20.7 14.1711 20.7H8.8289C7.07038 20.7 5.63297 20.7001 4.49809 20.5451C3.31032 20.3828 2.28416 20.0318 1.46724 19.2019C0.6528 18.3745 0.310585 17.3395 0.152042 16.1416C-6.18793e-05 14.9923 -3.36409e-05 13.5352 1.04302e-06 11.7458V8.95418C-3.36409e-05 7.16484 -6.18793e-05 5.70774 0.152042 4.55845C0.310585 3.3605 0.652799 2.32547 1.46724 1.49809C2.28416 0.668208 3.31032 0.317164 4.49809 0.154936C5.63298 -6.68947e-05 7.07039 -3.62844e-05 8.82892 1.15889e-06H8.82895ZM20.6996 12.3666C20.6991 12.7161 20.6978 13.0434 20.6948 13.3507C20.6904 13.5221 20.6825 13.6518 20.6681 13.7584L20.667 13.7668L20.6586 13.7679C20.4399 13.7974 20.1246 13.7998 19.55 13.7998H17.25C16.6754 13.7998 16.3601 13.7974 16.1414 13.7679L16.133 13.7668L16.1318 13.7584C16.1024 13.5397 16.1 13.2244 16.1 12.6498C16.1 12.0752 16.1024 11.7599 16.1318 11.5412L16.133 11.5328L16.1414 11.5316C16.3601 11.5022 16.6754 11.4998 17.25 11.4998H19.55C20.1246 11.4998 20.4399 11.5022 20.6586 11.5316L20.667 11.5328L20.6681 11.5412C20.6923 11.721 20.6983 11.966 20.6996 12.3666ZM20.7 9.22487C20.3682 9.19964 19.9946 9.19971 19.6126 9.19979L19.55 9.1998H17.25L17.1874 9.19979C16.6997 9.19969 16.2258 9.1996 15.8349 9.25216C15.3942 9.3114 14.8913 9.45575 14.4736 9.87345C14.0559 10.2911 13.9116 10.794 13.8523 11.2347C13.7998 11.6256 13.7999 12.0995 13.8 12.5872L13.8 12.6498L13.8 12.7124C13.7999 13.2 13.7998 13.674 13.8523 14.0649C13.9116 14.5056 14.0559 15.0084 14.4736 15.4261C14.8913 15.8438 15.3942 15.9882 15.8349 16.0474C16.2258 16.1 16.6997 16.0999 17.1874 16.0998H17.1874L17.25 16.0998H19.55L19.6126 16.0998H19.6126C19.9311 16.0999 20.2439 16.0999 20.5314 16.0853C20.4006 16.8732 20.1869 17.2905 19.8937 17.5884C19.5738 17.9134 19.1167 18.1397 18.1907 18.2662C17.2296 18.3975 15.9501 18.4 14.0875 18.4H8.9125C7.04985 18.4 5.77036 18.3975 4.80934 18.2662C3.88328 18.1397 3.42622 17.9134 3.10634 17.5884C2.784 17.261 2.55781 16.7892 2.43216 15.8398C2.30237 14.8591 2.3 13.555 2.3 11.6643V9.03572C2.3 7.14502 2.30237 5.8409 2.43216 4.86021C2.55781 3.91077 2.784 3.43905 3.10634 3.11158C3.42622 2.78663 3.88328 2.56026 4.80934 2.43378C5.77036 2.30252 7.04985 2.3 8.9125 2.3H14.0875C15.9501 2.3 17.2296 2.30252 18.1907 2.43378C19.1167 2.56026 19.5738 2.78663 19.8937 3.11158C20.216 3.43905 20.4422 3.91077 20.5678 4.86021C20.6976 5.8409 20.7 7.14502 20.7 9.03572V9.22487ZM4.60005 5.74981C4.60005 5.11469 5.11492 4.59981 5.75005 4.59981H9.20005C9.83517 4.59981 10.35 5.11469 10.35 5.74981C10.35 6.38494 9.83517 6.89981 9.20005 6.89981H5.75005C5.11492 6.89981 4.60005 6.38494 4.60005 5.74981Z" fill="#8F928E"/>
</svg>
